<svg width="400" height="400" viewBox="0 0 400 400" fill="none" xmlns="http://www.w3.org/2000/svg">
<g clip-path="url(#clip0_221_337)">
<path d="M100.19 401.273C100.134 401.198 100.083 401.113 100.028 401.035C106.611 398.625 283.601 413.615 295.581 411.784C295.579 411.968 295.569 412.153 295.569 412.337C296.048 412.228 295.977 412.209 296.001 411.726C296.441 411.672 297.788 411.443 296.047 410.95C301.971 303.056 370.089 320.283 330.946 221.667C321.684 198.655 322.375 177.025 320.139 150.068C317.011 153.123 318.035 168.948 314.208 198.22C343.24 289.214 318.312 285.338 294.653 328.902C286.826 343.296 280.551 357.964 279.198 374.207C240.654 307.554 251.913 309.05 267.33 268.675C264.678 272.417 253.904 280.432 244.025 282.317C268.184 263.963 282.586 263.905 283.091 151.914C260.938 141.663 240.785 122.608 228.351 101.254C212.242 134.659 183.673 148.641 147.176 154.192C138.081 158.816 128.612 162.692 119.041 166.228C118.232 213.282 130.521 245.412 155.183 279.516C146.528 273.319 137.683 263.113 131.451 254.427C138.931 269.406 150.056 281.804 147.023 308.601C143.671 338.033 115.354 358.08 115.354 395.933C87.7051 352.774 78.3755 371.057 84.7896 324.003C74.2887 305.633 69.1836 293.162 64.9336 279.839C63.9051 279.83 62.251 280.073 61.3075 280.186C49.2817 325.502 66.5061 359.168 100.19 401.273Z" fill="#5C3D2E"/>
<path d="M272.247 422.661H119.247V200.629H272.247V422.661Z" fill="#4C2D1E"/>
<path d="M296.048 410.95C301.973 303.056 370.09 320.284 330.948 221.667C323.609 203.432 322.519 186.058 321.271 166.221C320.909 166.221 320.545 166.221 320.182 166.221C320.763 185.574 321.1 202.792 326.783 219.373C362.391 323.753 296.749 302.417 295.6 410.853C288.08 409.829 106.706 398.538 100.028 401.035C76.1246 365.901 58.465 331.623 62.1472 293.303C61.0116 292.293 60.0596 291.098 59.1569 289.855C51.8707 330.421 68.9438 362.217 100.19 401.275C100.134 401.2 100.083 401.113 100.028 401.035C106.611 398.625 283.601 413.617 295.581 411.786C295.579 411.97 295.569 412.155 295.569 412.339C296.048 412.23 295.977 412.211 296.001 411.728C296.443 411.672 297.789 411.443 296.048 410.95Z" fill="#3D2012"/>
<path d="M354.474 375.093C344.26 357.825 331.568 354.739 321.106 351.402C310.357 347.975 288.218 345.999 276.143 343.582C264.481 341.248 236.783 333.741 236.467 320.652C236.14 306.94 243.762 252.5 243.762 252.5H155.824C155.824 252.5 163.452 306.939 163.124 320.652C162.811 333.741 135.108 341.248 123.444 343.582C111.367 345.999 89.2316 347.975 78.4825 351.402C68.0173 354.739 55.3217 357.823 45.1081 375.093C38.9133 385.565 34.8945 402.519 34.8945 421.219H364.694C364.693 402.519 360.681 385.565 354.474 375.093Z" fill="#F3D4CF"/>
<path d="M236.467 320.654C240.708 339.234 267.347 343.941 281.165 346.707C318.41 354.151 338.577 355.435 353.07 379.923C358.005 388.28 362.35 406.892 363.205 420.983C366.325 421.478 364.108 391.349 354.474 375.093C337.913 347.091 305.023 349.364 276.143 343.584C264.481 341.25 236.783 333.743 236.467 320.654ZM163.564 320.654C163.248 333.743 135.55 341.25 123.888 343.584C95.0083 349.364 62.1184 347.091 45.557 375.093C35.9231 391.35 33.7063 421.478 36.8258 420.983C37.6809 406.892 42.0261 388.28 46.9612 379.923C61.452 355.435 81.6208 354.151 118.866 346.707C132.684 343.941 159.323 339.232 163.564 320.654Z" fill="#FFF4F3"/>
<path d="M117.066 357.493C117.066 357.493 165.755 358.001 173.97 360.698C177.904 361.986 188.202 370.274 188.202 370.274C188.202 370.274 177.057 364.885 173.484 363.885C165.182 361.566 117.066 357.493 117.066 357.493ZM199.667 375.319C203.157 375.25 213.075 368.861 213.075 368.861C213.075 368.861 203.599 372.361 200.593 372.533C198.059 372.679 189.771 370.428 189.771 370.428C189.771 370.428 196.806 375.375 199.667 375.319ZM228.929 363.008C240.404 359.917 279.565 357.517 279.565 357.517C279.565 357.517 239.12 356.64 227.698 360.449C223.87 361.728 214.843 369.221 214.843 369.221C214.843 369.221 225.152 364.023 228.929 363.008Z" fill="#E4B3AB"/>
<path d="M354.474 375.093C337.914 347.092 304.967 349.352 276.143 343.584C264.481 341.249 236.783 333.742 236.467 320.654C236.14 306.942 243.762 252.501 243.762 252.501H155.824C155.824 252.501 163.452 306.94 163.124 320.654C162.811 333.742 135.108 341.249 123.444 343.584C111.367 346.001 89.2316 347.976 78.4825 351.404C68.0173 354.741 55.3217 357.824 45.1081 375.095C38.9133 385.567 34.8945 402.521 34.8945 421.221H364.694C364.693 402.519 360.681 385.565 354.474 375.093Z" stroke="#C5796D" stroke-width="2.55"/>
<path d="M183.813 323.928C191.419 326.727 208.623 326.727 216.227 323.928C222.195 321.734 228.941 317.096 235.758 311.206C237.092 293.318 241.332 262.014 242.42 254.123C240.528 253.938 238.585 253.766 236.593 253.608H163.651C161.432 253.783 159.268 253.975 157.172 254.184C158.265 262.111 162.435 292.885 163.8 310.789C170.782 316.878 177.703 321.681 183.813 323.928Z" fill="url(#paint0_linear_221_337)"/>
<path d="M217.252 424.432C186.883 424.432 151.462 424.315 108.963 424.07L71.385 423.866C48.6934 423.744 44.1833 423.718 41.4123 423.718L33.6382 423.728C33.6926 354.839 67.6637 350.06 103.627 344.996C115.988 343.257 128.768 341.457 140.32 336.95C154.812 357.308 177.591 360.055 197.97 360.055C199.104 360.055 200.25 360.045 201.398 360.026C222.933 359.541 248.236 351.91 256.336 335.952C257.38 336.35 258.353 336.809 259.291 337.254C260.347 337.752 261.438 338.269 262.647 338.706C270.552 341.569 280.381 342.922 290.785 344.357C324.804 349.049 367.142 354.885 366.568 420.974C366.573 421.236 366.575 422.839 366.547 423.341C346.688 423.341 333.215 423.533 317.618 423.755C296.461 424.058 270.128 424.432 217.272 424.432C217.262 424.432 217.257 424.432 217.252 424.432Z" fill="#5B9094"/>
<path d="M366.393 421.219C362.947 411.895 364.761 394.973 354.77 379.923C334.96 350.078 298.122 352.811 264.284 343.136C257.137 357.697 243.476 366.153 227.855 370.999L227.827 370.92C243.155 365.483 256.188 357.207 263.532 342.912C262.681 342.664 261.831 342.416 260.984 342.151L262.609 339.029C303.727 351.676 336.915 342.535 356.172 375.093C362.381 385.565 366.393 402.519 366.393 421.219ZM127.312 345.306C129.465 344.806 131.613 344.274 133.751 343.694L131.487 340.694C91.8036 350.939 61.9789 344.451 43.8552 375.093C37.6502 385.565 33.6365 402.519 33.6365 421.219C37.0824 411.895 35.2685 394.973 45.2594 379.923C63.2301 352.849 95.2138 352.578 126.258 345.54C137.34 359.188 153.529 368.83 171.141 371.606C149.049 365.843 135.31 355.164 127.312 345.306Z" fill="#7EA4A7"/>
<path d="M254.551 339.3C246.058 352.393 223.03 361.323 196.91 361.323C171.1 361.323 149.809 352.473 139.96 337.649L139.885 337.539L141.984 340.694C139.657 341.681 133.795 343.665 133.795 343.665L131.337 340.503L131.488 340.702C131.949 341.304 132.429 341.953 132.935 342.64C140.345 352.677 152.75 369.475 194.638 369.475C198.314 369.475 202.191 369.34 206.164 369.075C233.879 367.09 251.848 358.265 260.979 342.149C260.886 342.11 256.714 340.396 254.551 339.3Z" fill="#38787D"/>
<path d="M256.25 335.74C247.68 352.877 220.499 359.428 201.391 359.858C176.511 360.245 154.534 356.728 140.378 336.743C95.5522 354.328 33.4648 330.645 33.4648 423.9C49.2408 423.9 26.148 423.795 108.962 424.24C305.099 425.367 304.734 423.509 366.699 423.509C366.745 423.286 366.738 421.204 366.734 420.976C367.482 334.949 296.999 350.96 262.703 338.546C260.372 337.702 258.533 336.591 256.25 335.74ZM139.817 337.744C163.292 373.063 242.155 365.813 256.165 336.79C258.069 337.591 260.143 338.388 262.353 339.17C255.716 353.087 241.485 366.372 206.151 368.903C151.727 372.531 139.154 350.469 131.623 340.598C131.854 340.534 137.498 338.613 139.817 337.744ZM33.7028 423.609C37.9528 384.718 41.788 356.937 89.2758 348.694C105.584 345.685 113.941 345.397 131.487 340.651C144.871 358.997 158.243 372.132 207.477 370.061C243.806 366.02 256.044 353.709 262.66 339.291C307.744 353.481 363.445 338.999 366.156 423.237C280.366 422.12 197.482 419.888 33.7028 423.609Z" fill="#1E3C3F" fill-opacity="0.83"/>
<path d="M274.822 247.909C263.143 266.162 235.6 298.954 216.226 306.08C208.621 308.878 191.417 308.878 183.813 306.08C164.439 298.954 136.899 266.162 125.219 247.909C113.739 229.973 99.9703 166.644 99.9516 166.554C97.7416 158.204 96.5584 149.442 96.5448 140.405C96.4547 83.4975 142.707 37.3068 199.857 37.2184C257.013 37.13 303.409 83.1728 303.494 140.079C303.509 149.116 302.357 157.883 300.176 166.24C300.147 166.328 286.341 229.903 274.822 247.909Z" fill="#F3D4CF"/>
<path d="M217.274 38.6685C263.163 49.2765 297.338 90.2413 297.262 139.157C297.247 148.193 296.065 156.958 293.855 165.306C293.835 165.397 281.314 228.728 269.834 246.662C258.152 264.911 231.858 296.458 212.486 303.584C209.977 304.509 203.941 305.441 200.019 305.441C196.097 305.441 190.062 304.509 187.553 303.584C168.179 296.458 141.885 264.911 130.205 246.662C118.725 228.727 106.202 165.397 106.184 165.306C103.974 156.958 102.791 148.194 102.777 139.157C102.7 90.243 136.872 49.2765 182.765 38.6685C133.766 46.8608 96.4632 89.2978 96.5431 140.403C96.5567 149.439 97.7399 158.202 99.9499 166.553C99.9703 166.643 113.737 229.973 125.217 247.908C136.898 266.159 164.439 298.95 183.811 306.078C187.617 307.479 193.822 308.178 200.024 308.173C206.222 308.174 212.42 307.479 216.225 306.078C235.598 298.952 263.138 266.161 274.82 247.908C286.3 229.971 300.069 166.643 300.086 166.553C302.296 158.202 303.479 149.44 303.492 140.403C303.576 89.2978 266.273 46.8608 217.274 38.6685Z" fill="#EBC3BD"/>
<path d="M274.822 247.909C263.143 266.162 235.6 298.954 216.226 306.08C208.621 308.878 191.417 308.878 183.813 306.08C164.439 298.954 136.899 266.162 125.219 247.909C113.739 229.973 99.9703 166.644 99.9516 166.554C97.7416 158.204 96.5584 149.442 96.5448 140.405C96.4547 83.4975 142.707 37.3068 199.857 37.2184C257.013 37.13 303.409 83.1728 303.494 140.079C303.509 149.116 302.357 157.883 300.176 166.24C300.147 166.328 286.341 229.903 274.822 247.909Z" stroke="#C5796D" stroke-width="2.55"/>
<path d="M200.908 277.525C194.574 277.525 193.681 272.29 193.681 272.29L207.61 271.922C207.61 271.922 206.48 277.525 200.908 277.525Z" fill="url(#paint1_linear_221_337)"/>
<path d="M199.792 273.154C196.531 273.154 194.048 272.82 193.874 272.794C193.606 272.755 193.421 272.509 193.458 272.243C193.495 271.973 193.745 271.799 194.009 271.825C194.081 271.836 201.243 272.802 207.237 271.443C207.522 271.385 207.764 271.555 207.823 271.813C207.882 272.077 207.716 272.339 207.456 272.398C204.873 272.982 202.13 273.154 199.792 273.154ZM200.154 262.845C197.63 262.845 195.184 261.913 192.725 261.457C189.972 260.945 187.227 261.383 184.473 261.645C182.123 261.868 179.812 261.835 177.485 261.414C176.379 261.213 174.731 261.092 173.785 260.454C172.815 259.799 172.995 258.277 174.088 257.866C175.12 257.475 176.727 258.288 177.767 258.486C178.956 258.713 180.162 258.855 181.374 258.873C184.044 258.908 186.69 258.368 189.356 258.275C192.181 258.181 194.899 258.963 197.628 259.561C200.066 260.095 202.173 259.737 204.574 259.221C208.738 258.323 212.9 258.101 217.143 257.911C219.24 257.815 221.379 257.41 223.379 256.771C224.231 256.496 225.242 255.77 226.138 256.261C227.17 256.828 227.121 258.376 226.055 258.875C222.574 260.511 218.666 260.775 214.883 260.949C212.468 261.059 210.044 261.178 207.661 261.602C205.176 262.042 202.695 262.845 200.154 262.845Z" fill="#C5796D"/>
<path d="M179.034 185.792C179.28 186.665 179.427 187.562 179.427 188.481C179.427 190.747 178.627 192.889 177.224 194.808C170.986 194.866 151.266 195.888 148.253 194.344C143.949 192.14 140.109 183.07 139.829 180.839C155.121 172.042 166.405 173.754 179.034 185.792Z" fill="url(#paint2_radial_221_337)"/>
<path d="M173.327 190.998C171.443 197.917 164.306 201.994 157.37 200.093C150.442 198.194 146.35 191.038 148.236 184.116C150.118 177.192 157.271 173.116 164.2 175.018C171.127 176.915 175.215 184.072 173.327 190.998Z" fill="#66724E" stroke="#36441A" stroke-width="0.764999"/>
<path d="M173.013 188.361C172.057 196.043 166.353 200.047 160.112 199.629C154.352 199.242 149.202 194.992 148.724 187.652C150.716 187.08 153.362 188.01 155.684 187.656C155.677 187.74 155.649 187.815 155.646 187.9C155.462 190.719 157.722 193.173 160.694 193.373C163.671 193.572 166.232 191.441 166.416 188.624C166.436 188.257 166.413 187.896 166.358 187.55C168.428 187.862 170.954 187.555 173.013 188.361Z" fill="#788165"/>
<path opacity="0.9" d="M162.662 183.217C159.803 182.398 156.884 184.032 156.145 186.883C155.406 189.718 157.127 192.686 159.985 193.506C162.851 194.328 165.77 192.692 166.512 189.856C167.254 187.004 165.527 184.037 162.662 183.217Z" fill="black"/>
<path d="M162.662 183.217C159.803 182.398 156.884 184.032 156.145 186.883C155.406 189.718 157.127 192.686 159.985 193.506C162.851 194.328 165.77 192.692 166.512 189.856C167.254 187.004 165.527 184.037 162.662 183.217Z" stroke="#36441A" stroke-width="1.1475"/>
<path opacity="0.5" d="M154.627 195.483C154.356 196.43 152.88 196.027 153.15 195.076C153.412 194.158 154.119 193.596 154.567 192.788C155.046 191.926 156.368 192.697 155.888 193.561C155.519 194.227 154.836 194.741 154.627 195.483ZM156.982 193.973C156.575 194.447 156.042 196.203 155.81 196.779C155.441 197.694 156.922 198.088 157.286 197.186C157.411 196.872 157.84 195.314 158.063 195.054C158.701 194.311 157.624 193.223 156.982 193.973ZM160.167 198.497C160.966 197.576 160.886 196.52 160.869 195.374C160.854 194.389 159.324 194.387 159.339 195.374C159.348 196.009 159.538 196.892 159.085 197.415C158.441 198.157 159.52 199.244 160.167 198.497ZM161.729 195.183C161.741 196.133 161.858 197.059 162.139 197.968C162.43 198.907 163.906 198.506 163.616 197.561C163.372 196.776 163.27 196.001 163.261 195.181C163.247 194.198 161.717 194.196 161.729 195.183Z" fill="white"/>
<path opacity="0.8" d="M169.88 185.326C168.373 186.229 166.107 185.417 164.823 183.509C163.541 181.599 163.732 179.318 165.241 178.417C166.746 177.51 169.015 178.324 170.291 180.233C171.573 182.142 171.388 184.422 169.88 185.326Z" fill="white"/>
<path d="M131.712 188.321C131.712 209.447 144.044 226.569 159.252 226.569C174.461 226.569 186.792 209.447 186.792 188.321C186.792 167.193 174.461 150.069 159.252 150.069C144.044 150.069 131.712 167.193 131.712 188.321ZM139.829 180.838C155.121 172.042 166.405 173.754 179.034 185.79C179.28 186.664 179.427 187.56 179.427 188.48C179.427 190.746 178.627 192.888 177.224 194.806C170.986 194.865 151.266 195.887 148.253 194.343C143.949 192.14 140.108 183.07 139.829 180.838Z" fill="#F3D4CF"/>
<path d="M139.988 181.581C140.787 184.609 144.322 192.331 148.251 194.345C151.264 195.888 170.983 194.866 177.222 194.808C178.625 192.891 179.425 190.749 179.425 188.482C179.425 187.562 179.278 186.666 179.032 185.792C166.538 173.882 155.354 172.098 140.308 180.579C143.319 171.822 153.346 165.353 165.308 165.299C179.679 165.238 191.345 174.45 191.381 185.879C191.416 197.307 179.795 206.617 165.43 206.681C151.059 206.742 139.396 197.53 139.361 186.103C139.358 184.548 139.586 183.038 139.988 181.581Z" fill="url(#paint3_radial_221_337)"/>
<path d="M148.253 194.345C143.949 192.14 140.109 183.07 139.829 180.839C155.121 172.043 166.405 173.755 179.034 185.792C179.28 186.666 179.427 187.562 179.427 188.482C179.427 190.748 178.627 192.89 177.224 194.808C170.984 194.865 151.264 195.887 148.253 194.345Z" fill="url(#paint4_radial_221_337)"/>
<path d="M139.879 176.064C145.103 174.014 161.754 169.555 169.838 174.015C158.255 170.409 146.679 174.271 139.879 176.064ZM173.767 177.583C176.293 178.523 177.915 180.583 179.064 182.201C177.386 180.42 175.039 178.538 173.767 177.583Z" fill="#C5796D"/>
<path d="M174.646 177.098C161.885 173.021 151.901 173.07 139.168 178.315C133.18 179.142 130.82 178.614 127.788 177.929C129.503 179.39 130.958 180.811 134.387 181.039C132.569 181.495 131.894 181.5 129.892 181.592C132.926 182.539 134.837 183.18 137.985 183.696C136.665 184.321 134.882 184.519 133.238 184.366C134.653 185.476 136.758 185.377 138.88 186.085C144.797 193.858 146.035 195.559 147.869 195.649C163.259 196.58 172.825 195.27 178.948 194.405C176.654 194.115 151.674 195.6 148.252 193.927C143.948 191.823 140.107 183.169 139.827 181.039C155.511 172.432 166.974 174.34 179.999 186.638C177.019 182.113 173.272 179.179 168.142 176.716L174.646 177.098Z" fill="black"/>
<path d="M220.997 185.792C220.751 186.665 220.604 187.562 220.604 188.481C220.604 190.747 221.404 192.889 222.807 194.808C229.045 194.866 248.765 195.888 251.778 194.344C256.082 192.14 259.922 183.07 260.202 180.839C244.91 172.042 233.626 173.754 220.997 185.792Z" fill="url(#paint5_radial_221_337)"/>
<path d="M251.793 190.998C249.91 197.917 242.772 201.994 235.837 200.093C228.909 198.194 224.816 191.038 226.703 184.116C228.584 177.192 235.737 173.116 242.667 175.018C249.593 176.915 253.681 184.072 251.793 190.998Z" fill="#66724E" stroke="#36441A" stroke-width="0.764999"/>
<path d="M251.479 188.361C250.523 196.043 244.819 200.047 238.578 199.629C232.818 199.242 227.668 194.992 227.191 187.652C229.183 187.08 231.828 188.01 234.151 187.656C234.143 187.74 234.115 187.815 234.112 187.9C233.929 190.719 236.189 193.173 239.16 193.373C242.137 193.572 244.698 191.441 244.882 188.624C244.902 188.257 244.879 187.896 244.824 187.55C246.894 187.862 249.42 187.555 251.479 188.361Z" fill="#788165"/>
<path opacity="0.9" d="M241.129 183.217C238.269 182.398 235.35 184.032 234.611 186.883C233.872 189.718 235.593 192.686 238.451 193.506C241.317 194.328 244.236 192.692 244.978 189.856C245.72 187.004 243.993 184.037 241.129 183.217Z" fill="black"/>
<path d="M241.129 183.217C238.269 182.398 235.35 184.032 234.611 186.883C233.872 189.718 235.593 192.686 238.451 193.506C241.317 194.328 244.236 192.692 244.978 189.856C245.72 187.004 243.993 184.037 241.129 183.217Z" stroke="#36441A" stroke-width="1.1475"/>
<path opacity="0.5" d="M233.093 195.483C232.822 196.43 231.346 196.027 231.617 195.076C231.878 194.158 232.585 193.596 233.034 192.788C233.512 191.926 234.834 192.697 234.354 193.561C233.985 194.227 233.303 194.741 233.093 195.483ZM235.448 193.973C235.041 194.447 234.508 196.203 234.276 196.779C233.907 197.694 235.388 198.088 235.752 197.186C235.878 196.872 236.306 195.314 236.53 195.054C237.168 194.311 236.09 193.223 235.448 193.973ZM238.633 198.497C239.432 197.576 239.352 196.52 239.336 195.374C239.32 194.389 237.79 194.387 237.806 195.374C237.815 196.009 238.004 196.892 237.552 197.415C236.907 198.157 237.986 199.244 238.633 198.497ZM240.195 195.183C240.208 196.133 240.324 197.059 240.605 197.968C240.896 198.907 242.373 198.506 242.082 197.561C241.839 196.776 241.736 196.001 241.727 195.181C241.713 194.198 240.183 194.196 240.195 195.183Z" fill="white"/>
<path opacity="0.8" d="M248.346 185.326C246.839 186.229 244.573 185.417 243.289 183.509C242.005 181.599 242.197 179.318 243.705 178.417C245.211 177.51 247.48 178.324 248.756 180.233C250.041 182.142 249.854 184.422 248.346 185.326Z" fill="white"/>
<path d="M240.779 150.069C225.57 150.069 213.239 167.195 213.239 188.321C213.239 209.447 225.57 226.569 240.779 226.569C255.987 226.569 268.318 209.447 268.318 188.321C268.318 167.193 255.987 150.069 240.779 150.069ZM251.778 194.344C248.765 195.888 229.046 194.866 222.807 194.808C221.404 192.891 220.604 190.749 220.604 188.481C220.604 187.562 220.751 186.665 220.997 185.792C233.626 173.754 244.91 172.043 260.202 180.839C259.923 183.07 256.082 192.14 251.778 194.344Z" fill="#F3D4CF"/>
<path d="M260.043 181.581C259.244 184.609 255.708 192.331 251.779 194.345C248.767 195.888 229.048 194.866 222.809 194.808C221.406 192.891 220.605 190.749 220.605 188.482C220.605 187.562 220.752 186.666 220.999 185.792C233.493 173.882 244.677 172.098 259.723 180.579C256.712 171.822 246.684 165.353 234.723 165.299C220.351 165.238 208.685 174.45 208.65 185.879C208.615 197.307 220.235 206.617 234.6 206.681C248.972 206.742 260.635 197.53 260.67 186.103C260.673 184.548 260.445 183.038 260.043 181.581Z" fill="url(#paint6_radial_221_337)"/>
<path d="M251.778 194.345C256.082 192.14 259.922 183.07 260.202 180.839C244.91 172.043 233.626 173.755 220.997 185.792C220.751 186.666 220.604 187.562 220.604 188.482C220.604 190.748 221.404 192.89 222.807 194.808C229.047 194.865 248.767 195.887 251.778 194.345Z" fill="url(#paint7_radial_221_337)"/>
<path d="M230.192 174.015C238.277 169.555 254.928 174.014 260.151 176.064C253.352 174.271 241.776 170.409 230.192 174.015ZM220.967 182.201C222.116 180.583 223.737 178.523 226.263 177.583C224.992 178.538 222.645 180.42 220.967 182.201Z" fill="#C5796D"/>
<path d="M225.385 177.098C238.145 173.021 248.129 173.07 260.863 178.315C266.851 179.142 269.21 178.614 272.243 177.929C270.528 179.39 269.073 180.811 265.644 181.039C267.462 181.495 268.136 181.5 270.139 181.592C267.105 182.539 265.194 183.18 262.045 183.696C263.366 184.321 265.148 184.519 266.793 184.366C265.378 185.476 263.273 185.377 261.15 186.085C255.234 193.858 253.996 195.559 252.162 195.649C236.771 196.58 227.206 195.27 221.083 194.405C223.376 194.115 248.357 195.6 251.779 193.927C256.083 191.823 259.923 183.169 260.203 181.039C244.519 172.432 233.057 174.34 220.032 186.638C223.012 182.113 226.759 179.179 231.889 176.716L225.385 177.098Z" fill="black"/>
<path d="M268.362 227.433C268.422 265.301 237.771 296.054 199.898 296.106C162.032 296.167 131.284 265.518 131.225 227.644C131.167 189.778 161.816 159.03 199.689 158.971C237.556 158.913 268.306 189.562 268.362 227.433Z" fill="url(#paint8_radial_221_337)"/>
<path d="M259.515 130.519C259.515 163.379 232.875 190.019 200.015 190.019C167.156 190.019 140.515 163.379 140.515 130.519C140.515 97.6602 167.156 71.0195 200.015 71.0195C232.875 71.0195 259.515 97.6602 259.515 130.519Z" fill="url(#paint9_radial_221_337)"/>
<path d="M125.739 174.145C136.087 148.65 182.062 171.504 182.554 161.54C182.642 159.544 181.369 158.627 179.494 158.239C157.451 153.836 129.033 152.008 125.739 174.145Z" fill="#6B4E40"/>
<path d="M274.291 174.145C263.944 148.651 217.969 171.504 217.477 161.54C217.389 159.544 218.662 158.627 220.537 158.239C242.58 153.836 270.998 152.008 274.291 174.145Z" fill="#6B4E40"/>
<path d="M198.39 190.762C198.39 190.762 196.984 223.174 197.178 230.294C197.232 232.314 201.122 237.611 200.857 241.471C200.857 241.471 193.271 240.919 190.803 240.047C188.221 239.132 184.226 237.347 185.805 232.361C188.054 225.27 198.39 190.762 198.39 190.762Z" fill="#E4B3AB"/>
<path d="M197.681 237.665C197.681 237.665 194.535 236.548 192.547 236.605C190.738 236.661 190.477 235.455 190.66 234.77C190.844 234.085 191.464 233.658 193.212 234.124C194.961 234.593 197.681 237.665 197.681 237.665ZM202.365 237.669C202.365 237.669 205.505 236.633 207.499 236.611C209.307 236.589 209.571 235.46 209.386 234.777C209.202 234.09 208.582 233.66 206.834 234.126C205.085 234.599 202.365 237.669 202.365 237.669Z" fill="#C5796D"/>
<path opacity="0.1" d="M117.389 399.767C90.6595 357.089 81.1429 374.42 87.3462 327.59C78.4909 311.591 71.4087 295.681 66.6215 278.589C57.1049 242.072 66.8459 218.639 75.3629 191.978C67.2267 80.9033 130.895 20.0195 201.222 20.0195C256.098 20.0195 315.394 59.9185 315.923 147.895C315.049 163.975 312.639 190.978 310.818 202.576C341.025 296.125 315.07 288.679 291.999 332.382C285.741 344.228 278.378 361.736 276.837 379.257C245.115 322.738 248.005 314.104 258.687 288.494C271.444 257.919 266.417 281.575 241.636 284.376C264.693 266.543 280.255 266.591 280.741 155.477C280.743 155.411 280.706 155.35 280.65 155.322C259.651 145.325 239.787 126.412 227.514 104.73C227.484 104.678 227.435 104.645 227.375 104.645H227.37C227.307 104.647 227.251 104.685 227.225 104.742C213.056 134.98 188.761 151.278 148.454 157.585C140.585 161.694 131.9 165.517 121.078 169.63C121.015 169.653 120.97 169.716 120.97 169.786C120.243 213.405 130.263 244.384 155.526 280.614C143.482 275.082 133.858 259.005 133.858 259.005C133.255 259.005 138.081 267.446 138.384 267.983C172.059 327.983 117.781 347.242 117.389 399.767Z" fill="#6B4E40"/>
<path d="M115.187 396.207C87.6863 353.528 77.8943 370.86 84.2778 324.03C75.1658 308.031 67.8779 292.121 62.9547 275.029C53.1627 238.512 63.1842 215.079 71.9477 188.418C63.5752 77.3449 129.083 16.4595 201.445 16.4595C257.902 16.4595 318.913 56.3585 319.457 144.335C318.561 160.415 316.085 187.418 314.206 199.016C345.287 292.565 318.58 285.119 294.843 328.822C288.402 340.668 280.832 358.176 279.246 375.696C246.602 319.178 249.579 310.544 260.573 284.934C273.693 254.359 265.593 277.936 243.027 282.854C266.749 265.021 282.761 263.031 283.263 151.917C283.264 151.851 283.225 151.79 283.164 151.762C261.559 141.765 241.125 122.852 228.499 101.17C228.468 101.118 228.412 101.085 228.353 101.085H228.346C228.283 101.087 228.227 101.125 228.2 101.182C213.619 131.42 188.622 147.718 147.152 154.025C139.053 158.134 130.118 161.957 118.985 166.07C118.919 166.093 118.876 166.156 118.874 166.226C118.125 209.843 128.435 242.524 154.428 278.754C141.981 269.542 132.136 255.445 132.136 255.445C131.514 255.445 136.481 263.886 136.791 264.423C171.437 324.424 115.59 343.684 115.187 396.207Z" fill="#6B4E40"/>
<path d="M76.4933 222.071C75.2166 208.932 54.9441 124.405 105.021 62.5059C81.2346 108.673 74.3105 170.983 76.4933 222.071ZM314.801 195.191C322.305 143.456 324.336 87.9838 281.748 47.7329C302.785 88.8576 317.47 118.946 314.801 195.191ZM273.353 74.1764C269.304 93.0277 276.262 117.785 278.542 134.888C266.659 125.309 259.576 111.821 251.406 93.0753C253.2 103.663 257.331 122.703 280.259 146.222C243.202 113.127 235.251 96.4277 241.305 57.0489C240.968 58.5398 240.644 59.9474 240.331 61.2819C241.142 56.9605 241.883 52.2923 242.515 47.2212C237.074 77.8212 196.416 132.304 162.512 143.955C157.395 149.077 152.759 149.316 147.223 154.013C193.516 146.955 222.697 120.513 228.956 101.541C241.597 122.346 264.539 141.569 285.34 151.404C288.481 123.878 278.54 106.963 273.353 74.1764ZM202.626 75.3885C187.326 100.888 178.225 117.038 154.425 132.338C162.151 126.156 167.493 115.905 170.627 106.963C161.26 120.826 146.576 129.469 133.715 140.721C146.492 126.666 163.712 106.963 174.576 88.1385C163.625 102.728 145.994 114.211 130.315 127.238C142.65 116.989 152.415 104.005 159.215 90.4046C154.498 96.6946 145.85 101.385 135.415 111.821C150.668 91.479 152.211 82.0984 156.528 73.7327C145.96 91.5385 136.714 97.7129 126.278 106.534C119.102 136.628 118.694 149.694 117.343 166.226C117.276 167.024 146.435 154.389 147.152 154.025C147.176 154.022 147.2 154.017 147.223 154.013C174.41 130.944 185.569 106.881 202.626 75.3885ZM132.015 268.221C136.755 287.178 134.099 304.083 127.826 323.871C126.997 305.577 113.419 286.8 103.318 270.385C105.636 305.619 109.38 322.004 103.459 348.804C100.287 300.19 90.1426 283.747 75.2676 247.796C69.2717 270.564 70.7473 300.268 84.2759 324.03C77.8924 370.86 87.6844 353.529 115.185 396.207C115.59 343.684 171.435 324.423 136.787 264.423C136.476 263.886 131.51 255.446 132.133 255.446C132.133 255.446 141.979 269.542 154.425 278.754C116.629 237.596 106.718 185.746 105.635 129.646C97.1568 197.217 121.815 234.221 132.015 268.221ZM317.529 207.796C319 236.574 326.776 272.684 301.792 296.106C311.992 279.106 307.115 256.321 302.015 239.321C302.654 284.816 283.635 312.139 278.54 342.004C277.765 328.258 274.623 311.644 281.044 289.279C274.817 300.162 267.793 312.821 265.084 327.908C256.175 311.202 261.061 298.556 264.178 282.29C277.401 268.367 286.545 241.764 288.478 224.67C286.889 238.723 277.79 259.866 267.266 268.695C267.264 268.711 266.354 271.771 265.355 275.125C265.43 274.559 265.501 273.989 265.567 273.411C250.39 309.128 242.881 312.734 279.245 375.693C280.682 359.786 287.276 342.734 294.843 328.819C317.716 286.707 343.497 291.132 317.529 207.796Z" fill="#5C3D2E"/>
<path d="M294.092 170.942C301.349 141.338 290.19 95.7764 284.463 86.8871C293.393 100.739 305.371 138.111 294.092 170.942ZM301.065 184.409C301.843 180.392 325.026 135.56 285.775 72.3555C321.28 136.984 301.854 180.336 301.065 184.409ZM87.9615 129.47C89.6615 128.71 100.475 49.1301 170.291 34.1208C97.0735 47.0221 89.6615 128.714 87.9615 129.47ZM97.6005 204.925C97.5597 203.22 83.7421 124.374 122.575 73.8481C77.6085 127.065 97.5597 203.225 97.6005 204.925ZM103.137 258.286C100.71 255.061 80.8572 201.647 90.0967 140.758C73.0015 204.614 101.859 256.586 103.137 258.286ZM290.787 87.6929C289.087 87.1914 268.59 28.1641 226.447 33.9848C263.31 31.8955 289.087 87.1863 290.787 87.6929ZM255.712 118.276C255.712 118.276 239.7 93.1652 245.506 51.8365C240.147 77.0645 240.71 94.5031 255.712 118.276ZM260.236 98.7344C264.602 110.906 274.013 124.044 275.58 125.083C273.879 123.956 259.158 102.403 255.717 66.8968C256.023 77.5541 256.598 88.5888 260.236 98.7344ZM179.857 132.926C193.445 119.718 223.778 106.741 241.011 43.8907C222.52 101.949 194.23 118.954 179.857 132.926ZM179.899 81.2363C191.784 69.8854 196.039 58.2489 195.891 47.3281C194.674 58.288 188.739 72.7941 179.899 81.2363ZM162.863 86.8956C163.504 86.8735 165.13 84.9627 165.589 84.5615C179.149 72.7312 185.351 63.1738 186.648 46.7603C184.657 65.4756 164.567 86.8378 162.863 86.8956ZM160.58 83.5313C160.58 83.5313 174.571 67.1059 179.597 43.9077C174.276 62.4156 160.58 83.5313 160.58 83.5313ZM125.9 296.67C126.888 294.97 129.173 262.205 112.946 248.662C123.155 259.022 126.886 294.969 125.9 296.67ZM125.929 296.653C125.147 283.453 113.094 272.993 110.646 256.454C111.558 277.547 124.578 285.061 125.929 296.653ZM99.8768 308.004C98.2465 304.195 106.206 286.707 82.3447 249.723C101.781 284.708 99.0914 306.168 99.8768 308.004ZM99.9108 305.759C97.8946 298.314 101.451 282.387 92.5583 256.477C97.2061 273.666 97.303 296.116 99.9108 305.759ZM285.056 258.512C278.072 272.238 263.767 281.746 267.481 315.93C267.14 312.78 267.753 309.23 268 306.087C271.327 263.667 282.742 296.347 295.278 217.275C292.245 229.41 289.937 248.923 285.056 258.512ZM281.155 320.46C281.785 317.985 281.741 315.195 282.18 312.664C285.889 291.22 294.064 279.716 294.778 245.099C293.143 273.117 280.801 296.279 281.155 320.46ZM310.697 275.067C311.494 269.749 322.3 261.565 314.09 219.06C318.758 262.681 311.481 269.838 310.697 275.067ZM310.699 275.12C311.443 273.42 315.984 244.642 304.492 223.072C312.514 240.536 311.445 273.42 310.699 275.12Z" fill="#7A6155"/>
<path d="M62.1471 293.301C62.5687 288.925 63.2504 284.5 64.2517 280.012C68.5017 293.337 73.6068 305.638 84.1077 324.008C77.6936 371.062 87.7049 353.625 115.354 396.785C115.354 358.931 144.352 338.036 147.705 308.606C150.737 281.807 139.614 270.596 132.133 255.617C138.365 264.301 146.53 273.324 155.185 279.521C130.523 245.415 118.235 213.287 119.043 166.233C128.614 162.697 138.083 158.821 147.178 154.197C183.675 148.645 212.243 134.664 228.353 101.259C240.786 122.614 260.94 141.668 283.093 151.919C282.586 263.908 266.484 264.821 242.327 283.174C252.205 281.289 264.003 273.435 266.655 269.693C251.24 310.068 240.827 309.595 279.37 376.249C280.723 360.004 287.166 343.298 294.993 328.904C318.651 285.34 345.552 291.021 314.458 197.511C317.082 181.295 319.263 165.745 319.558 150.2C319.855 155.717 320.027 161.041 320.181 166.223C320.545 166.223 320.909 166.223 321.271 166.223C320.834 159.276 320.379 152.033 319.626 144.335C318.509 -36.5583 55.3352 -29.369 71.7827 188.365C62.8968 215.417 52.9756 238.488 62.7897 274.98C61.2155 280.083 60.0255 285.025 59.1568 289.853C60.0612 291.096 61.0115 292.291 62.1471 293.301ZM72.4457 195.605C72.6072 197.305 78.7697 242.617 74.6897 209.426C44.5266 -35.9616 357.326 -52.9616 312.452 208.544C309.402 226.316 311.146 217.977 314.085 199.84C343.426 298.865 307.71 277.297 282.941 348.369C280.612 355.065 278.963 363.669 278.283 370.69C241.524 305.939 259.231 300.084 268.695 267.5C279.914 255.104 286.741 240.519 288.602 222.416C284.198 252.997 264.15 273.501 247.495 280.318C256.192 274.587 265.239 268.461 270.616 259.255C274.074 255.624 290.612 214.761 284.42 136.804C281.576 102.565 270.077 92.4223 272.638 77.8822C270.264 89.3011 276.767 97.0191 280.645 120.518C282.438 131.497 283.077 147.458 283.077 150.387C264.508 140.247 240.73 118.274 229.085 99.7442C236.669 84.1977 240.615 60.5167 243.705 45.5652C234.498 83.1148 228.043 134.841 152.313 151.475C164.608 144.755 191.391 130.662 219.038 74.3632C219.072 74.3462 219.088 74.3292 219.088 74.2952C233.896 45.2337 220.111 70.8374 218.935 72.9352C218.913 72.891 218.918 72.7601 218.918 72.9522C184.652 134.31 157.06 150.018 119.043 165.772C119.06 164.616 119.077 163.46 119.128 162.304C165.845 147.104 194.978 91.4584 185.547 105.218C170.456 127.352 144.483 152.844 119.145 161.896C119.174 160.196 119.456 154.552 119.927 149.758C152.592 126.563 159.788 114.334 172.44 92.2982C173.385 90.6339 174.203 89.2161 174.911 88.004C167.29 99.6048 147.196 127.444 120.012 148.736C120.76 140.882 121.882 133.062 123.225 125.293C124.79 123.223 138.242 112.455 149.269 90.0355C154.528 79.4122 156.528 73.7325 156.528 73.7325C155.047 76.4151 146.268 96.5193 123.701 122.658C127.424 102.024 132.52 83.4293 138.27 63.1075C128.484 93.529 118.963 126.47 116.153 159.667C115.323 161.367 113.746 224.245 145.452 268.415C96.5432 215.8 104.54 151.137 104.848 129.492C104.695 129.492 103.573 147.087 103.488 148.277C96.9138 235.683 147.003 256.827 144.288 302.314C142.295 335.546 114.798 354.032 114.555 393.927C93.0718 356.602 80.8794 367.492 85.9097 327.117C86.0406 325.417 87.8375 313.087 86.0457 301.056C83.1625 281.921 79.04 276.41 79.6435 272.394C79.1862 274.822 80.2402 277.301 82.0524 283.784C85.2977 295.12 85.7295 310.481 84.3134 322.425C56.2243 267.094 60.1547 237.692 72.4457 195.605Z" fill="#3D2012"/>
<path opacity="0.2" d="M268.313 206.791C261.563 211.458 252.18 214.058 241.698 213.025C225.468 211.442 215.842 200.896 212.241 191.578C209.124 183.745 210.4 178.254 216.504 173.231C221.139 169.42 229.86 166.497 239.373 165.544C257.235 171.649 273.045 189.769 268.313 206.791ZM146.736 165.657C135.981 167.014 126.242 171.584 122.318 180.951C115.502 198.248 133.962 215.399 158.316 213.025C165.099 212.363 170.719 210.118 175.241 207.066C180.199 190.076 164.55 171.923 146.736 165.657Z" fill="white"/>
<path opacity="0.4" d="M268.313 206.791C273.045 189.769 257.235 171.665 239.389 165.544C254.731 164.01 272.125 167.611 277.713 180.951C281.589 190.803 277.261 200.606 268.313 206.791ZM183.51 173.216C176.646 167.563 160.803 163.865 146.736 165.657C164.55 171.924 180.199 190.076 175.241 207.066C181.523 202.818 185.674 197.004 187.773 191.562C190.907 183.745 189.631 178.254 183.51 173.216Z" fill="white"/>
<path d="M286.757 184.746C286.434 183.212 285.642 181.5 285.077 180.951C283.947 179.821 280.927 179.11 278.827 179.029C267.813 155.596 217.699 160.925 209.883 178.674C204.489 175.492 195.558 175.476 190.131 178.674C182.299 160.909 132.185 155.596 121.187 179.029C119.088 179.11 116.068 179.821 114.937 180.951C114.388 181.5 113.581 183.212 113.258 184.746C113.048 185.764 112.289 186.62 112.547 187.217C113.258 188.832 114.695 187.831 115.309 187.427C115.777 187.266 117.812 187.524 119.12 188.542C119.249 203.836 136.4 216.949 158.494 214.785C181.055 212.589 192.57 193.177 191.036 181.775C194.121 179.482 205.878 179.465 208.979 181.775C207.444 193.161 218.959 212.573 241.521 214.785C263.598 216.949 280.765 203.836 280.894 188.542C282.203 187.524 284.221 187.266 284.706 187.427C285.319 187.831 286.773 188.832 287.484 187.217C287.726 186.62 286.967 185.764 286.757 184.746ZM119.314 185.683C118.183 185.15 116.956 184.827 115.906 184.827C116.132 183.987 116.504 183.035 116.762 182.776C117.182 182.356 118.571 181.743 120.105 181.791C119.718 183.051 119.459 184.359 119.314 185.683ZM187.063 191.287C183.575 200.331 174.175 210.683 158.268 212.25C134.285 214.592 116.536 197.844 123.061 181.242C123.222 180.854 123.303 180.677 123.416 180.37C132.363 160.618 171.155 164.074 183.025 173.829C188.387 178.238 190.309 183.115 187.063 191.287ZM241.779 212.25C225.871 210.699 216.456 200.331 212.968 191.287C209.705 183.115 211.643 178.238 217.005 173.829C228.875 164.074 267.651 160.634 276.615 180.354C276.728 180.677 276.825 180.838 276.97 181.226C283.511 197.828 265.746 214.592 241.779 212.25ZM280.717 185.683C280.555 184.359 280.313 183.051 279.925 181.791C281.46 181.743 282.849 182.34 283.268 182.776C283.527 183.051 283.898 183.987 284.124 184.827C283.075 184.843 281.847 185.15 280.717 185.683Z" fill="#C5796D"/>
</g>
<defs>
<linearGradient id="paint0_linear_221_337" x1="199.981" y1="326.48" x2="199.981" y2="267.118" gradientUnits="userSpaceOnUse">
<stop stop-color="#E4B3AB" stop-opacity="0.8"/>
<stop offset="0.7" stop-color="#C5796D"/>
</linearGradient>
<linearGradient id="paint1_linear_221_337" x1="200.015" y1="278.208" x2="200.015" y2="272.343" gradientUnits="userSpaceOnUse">
<stop offset="0.1" stop-color="#EBC3BD"/>
<stop offset="1" stop-color="#E4B3AB"/>
</linearGradient>
<radialGradient id="paint2_radial_221_337" cx="0" cy="0" r="1" gradientUnits="userSpaceOnUse" gradientTransform="translate(159.106 185.953) rotate(180) scale(20.8079)">
<stop stop-color="white"/>
<stop offset="0.544" stop-color="#FDFEFE"/>
<stop offset="0.74" stop-color="#F6F8F9"/>
<stop offset="0.879" stop-color="#EAEFF2"/>
<stop offset="0.992" stop-color="#D9E3E8"/>
<stop offset="1" stop-color="#D8E2E7"/>
</radialGradient>
<radialGradient id="paint3_radial_221_337" cx="0" cy="0" r="1" gradientTransform="matrix(25.7952 0.536648 0.428286 -20.6351 165.499 185.178)" gradientUnits="userSpaceOnUse">
<stop stop-color="#E4B3AB"/>
<stop offset="0.7" stop-color="#E4B3AB" stop-opacity="0.3"/>
<stop offset="1" stop-color="#F3D4CF" stop-opacity="0"/>
</radialGradient>
<radialGradient id="paint4_radial_221_337" cx="0" cy="0" r="1" gradientTransform="matrix(35.3467 -1.84256 1.8527 35.1303 157.811 213.498)" gradientUnits="userSpaceOnUse">
<stop offset="0.95" stop-opacity="0"/>
<stop offset="1" stop-opacity="0.3"/>
</radialGradient>
<radialGradient id="paint5_radial_221_337" cx="0" cy="0" r="1" gradientUnits="userSpaceOnUse" gradientTransform="translate(240.923 185.953) scale(20.8095 20.8095)">
<stop stop-color="white"/>
<stop offset="0.544" stop-color="#FDFEFE"/>
<stop offset="0.74" stop-color="#F6F8F9"/>
<stop offset="0.879" stop-color="#EAEFF2"/>
<stop offset="0.992" stop-color="#D9E3E8"/>
<stop offset="1" stop-color="#D8E2E7"/>
</radialGradient>
<radialGradient id="paint6_radial_221_337" cx="0" cy="0" r="1" gradientTransform="matrix(-25.7952 0.536648 -0.428286 -20.6351 234.531 185.178)" gradientUnits="userSpaceOnUse">
<stop stop-color="#E4B3AB"/>
<stop offset="0.7" stop-color="#E4B3AB" stop-opacity="0.3"/>
<stop offset="1" stop-color="#F3D4CF" stop-opacity="0"/>
</radialGradient>
<radialGradient id="paint7_radial_221_337" cx="0" cy="0" r="1" gradientTransform="matrix(-35.3467 -1.84256 -1.8527 35.1303 242.22 213.498)" gradientUnits="userSpaceOnUse">
<stop offset="0.95" stop-opacity="0"/>
<stop offset="1" stop-opacity="0.3"/>
</radialGradient>
<radialGradient id="paint8_radial_221_337" cx="0" cy="0" r="1" gradientUnits="userSpaceOnUse" gradientTransform="translate(200.015 227.421) scale(68 68)">
<stop stop-color="#FFF4F3" stop-opacity="0.5"/>
<stop offset="0.9" stop-color="#F3D4CF" stop-opacity="0"/>
</radialGradient>
<radialGradient id="paint9_radial_221_337" cx="0" cy="0" r="1" gradientUnits="userSpaceOnUse" gradientTransform="translate(200.015 132.221) scale(61.2)">
<stop stop-color="#FFF4F3" stop-opacity="0.5"/>
<stop offset="0.9" stop-color="#F3D4CF" stop-opacity="0"/>
</radialGradient>
<clipPath id="clip0_221_337">
<rect width="400" height="400" fill="white"/>
</clipPath>
</defs>
</svg>
