<svg width="32" height="32" viewBox="0 0 32 32" fill="none" xmlns="http://www.w3.org/2000/svg">
<g clip-path="url(#clip0_2_99)">
<path d="M15.3039 5.08426L7.30106 13.0873C7.10874 13.28 7.09822 13.5883 7.27653 13.794L19.4129 27.7982C19.6102 28.0257 19.959 28.0378 20.172 27.8248L30.5087 17.4879C30.7269 17.2697 30.7077 16.9108 30.4674 16.7171L15.9972 5.04674C15.7907 4.8803 15.4915 4.89667 15.3039 5.08426Z" stroke="#F2F2F2" stroke-width="1.03849"/>
<path d="M4.6837 23.3072L17.5497 25.7167L13.7646 21.3393L13.7589 21.3323L11.6138 18.7588C11.5028 18.6256 11.3327 18.5566 11.1603 18.5749L4.68314 19.2623L4.6837 23.3072Z" stroke="#F2F2F2" stroke-width="1.03849"/>
<path d="M27.403 7.6723C26.2378 4.99165 23.2621 3.84892 20.7662 5.05902C19.889 5.48439 19.1806 6.14512 18.6793 6.94281L28.7018 15.0385L28.7028 15.0356C29.289 13.6035 29.272 11.9737 28.6559 10.5561L27.403 7.6723Z" stroke="#F2F2F2" stroke-width="1.03849"/>
<path d="M2.26395 18.1836C1.91922 18.0178 1.51883 18.2698 1.51883 18.6523V24.377C1.5189 24.7943 1.9868 25.041 2.33133 24.8057L4.63797 23.2256V19.3252L2.26395 18.1836Z" stroke="#F2F2F2" stroke-width="1.03849"/>
</g>
<defs>
<clipPath id="clip0_2_99">
<rect width="32" height="32" fill="white"/>
</clipPath>
</defs>
</svg>
