<svg width="32" height="32" viewBox="0 0 32 32" fill="none" xmlns="http://www.w3.org/2000/svg">
<g clip-path="url(#clip0_21_7)">
<path d="M15.644 5.42426L7.64111 13.4273C7.62712 13.4416 7.62657 13.464 7.6397 13.4791L19.776 27.4833C19.7811 27.4891 19.785 27.492 19.788 27.4934C19.7919 27.4952 19.7975 27.4959 19.8038 27.4961C19.81 27.4963 19.8152 27.4954 19.8191 27.494C19.8222 27.4928 19.8264 27.4904 19.8319 27.4848L30.1693 17.1487C30.1752 17.1428 30.177 17.1382 30.1782 17.1352C30.1796 17.1312 30.1806 17.1253 30.1802 17.1187C30.1798 17.1124 30.1785 17.107 30.1767 17.1033C30.1752 17.1004 30.1719 17.0963 30.1654 17.0911L15.6953 5.42081C15.68 5.40876 15.6578 5.41046 15.644 5.42426Z" fill="url(#paint0_linear_21_7)" stroke="#F2F2F2" stroke-width="2"/>
<path d="M5.16484 22.9086L16.2852 24.9902L13.4013 21.6545L13.3947 21.6475L13.389 21.6405L11.2449 19.067C11.2367 19.0571 11.2239 19.0519 11.2111 19.0533L5.16532 19.6933L5.16484 22.9086Z" fill="url(#paint1_linear_21_7)" stroke="#F2F2F2" stroke-width="2"/>
<path d="M26.9615 7.86469C25.8984 5.41861 23.2098 4.40806 20.9752 5.49164C20.6088 5.66949 20.0858 6.12774 19.5446 6.75629C19.2525 7.09555 18.9873 7.45098 18.7672 7.77484L23.6305 11.7241L23.6334 11.726L28.0641 15.35C28.0949 15.2662 28.119 15.1942 28.1383 15.1469L28.2584 14.8539C28.7956 13.5418 28.7797 12.047 28.2155 10.7485L26.9615 7.86469Z" stroke="#F2F2F2" stroke-width="2"/>
<path d="M2.01785 18.6191C2.00943 18.6244 2.00502 18.6306 2.0032 18.6338C2.0025 18.635 2.00169 18.6362 2.00125 18.6377C2.00083 18.6393 2.00027 18.6443 2.00027 18.6523V24.377C2.00028 24.3872 2.00092 24.3924 2.00125 24.3936C2.00163 24.3948 2.00263 24.3956 2.0032 24.3965C2.00487 24.3991 2.01031 24.4056 2.02078 24.4111C2.0312 24.4166 2.0393 24.4171 2.04227 24.417C2.04338 24.4169 2.04482 24.4165 2.04617 24.416C2.04793 24.4154 2.05234 24.4133 2.05984 24.4082L4.1575 22.9727V19.6279L2.05496 18.6172C2.04808 18.6139 2.04398 18.6126 2.04227 18.6123C2.04055 18.612 2.03891 18.6122 2.03738 18.6123C2.03375 18.6126 2.02627 18.6139 2.01785 18.6191Z" fill="#F2F2F2" stroke="#F2F2F2" stroke-width="2"/>
</g>
<defs>
<linearGradient id="paint0_linear_21_7" x1="24.7235" y1="9.47891" x2="16.0238" y2="23.472" gradientUnits="userSpaceOnUse">
<stop stop-color="#F2F2F2"/>
<stop offset="1" stop-color="#83B4C3"/>
</linearGradient>
<linearGradient id="paint1_linear_21_7" x1="12.0081" y1="18.0107" x2="9.89566" y2="25.9403" gradientUnits="userSpaceOnUse">
<stop stop-color="#F2F2F2"/>
<stop offset="1" stop-color="#83B4C3"/>
</linearGradient>
<clipPath id="clip0_21_7">
<rect width="32" height="32" fill="white"/>
</clipPath>
</defs>
</svg>
