<svg width="400" height="400" viewBox="80 80 350 300" fill="none" xmlns="http://www.w3.org/2000/svg">
<g clip-path="url(#clip0_243_980)">
<path d="M100.19 402.273C100.134 402.198 100.083 402.113 100.028 402.035C106.611 399.625 283.601 414.615 295.581 412.784C295.579 412.968 295.569 413.153 295.569 413.337C296.048 413.228 295.977 413.209 296.001 412.726C296.441 412.672 297.788 412.443 296.047 411.95C301.971 304.056 370.089 321.283 330.946 222.667C321.684 199.655 322.375 178.025 320.139 151.068C317.011 154.123 318.035 169.948 314.208 199.22C343.24 290.214 318.312 286.338 294.653 329.902C286.826 344.296 280.551 358.964 279.198 375.207C240.654 308.554 251.913 310.05 267.33 269.675C264.678 273.417 253.904 281.432 244.025 283.317C268.184 264.963 282.586 264.905 283.091 152.914C260.938 142.663 240.785 123.608 228.351 102.254C212.242 135.659 183.673 149.641 147.176 155.192C138.081 159.816 128.612 163.692 119.041 167.228C118.232 214.282 130.521 246.412 155.183 280.516C146.528 274.319 137.683 264.113 131.451 255.427C138.931 270.406 150.056 282.804 147.023 309.601C143.671 339.033 115.354 359.08 115.354 396.933C87.7051 353.774 78.3755 372.057 84.7896 325.003C74.2887 306.633 69.1836 294.162 64.9336 280.839C63.9051 280.83 62.251 281.073 61.3075 281.186C49.2817 326.502 66.5061 360.168 100.19 402.273Z" fill="#5C3D2E"/>
<path d="M272.247 423.661H119.247V201.629H272.247V423.661Z" fill="#4C2D1E"/>
<path d="M296.048 411.95C301.973 304.056 370.09 321.284 330.948 222.667C323.609 204.432 322.519 187.058 321.271 167.221C320.909 167.221 320.545 167.221 320.182 167.221C320.763 186.574 321.1 203.792 326.783 220.373C362.391 324.753 296.749 303.417 295.6 411.853C288.08 410.829 106.706 399.538 100.028 402.035C76.1246 366.901 58.465 332.623 62.1472 294.303C61.0116 293.293 60.0596 292.098 59.1569 290.855C51.8707 331.421 68.9438 363.217 100.19 402.275C100.134 402.2 100.083 402.113 100.028 402.035C106.611 399.625 283.601 414.617 295.581 412.786C295.579 412.97 295.569 413.155 295.569 413.339C296.048 413.23 295.977 413.211 296.001 412.728C296.443 412.672 297.789 412.443 296.048 411.95Z" fill="#3D2012"/>
<path d="M354.474 376.093C344.26 358.825 331.568 355.739 321.106 352.402C310.357 348.975 288.218 346.999 276.143 344.582C264.481 342.248 236.783 334.741 236.467 321.652C236.14 307.94 243.762 253.5 243.762 253.5H155.824C155.824 253.5 163.452 307.939 163.124 321.652C162.811 334.741 135.108 342.248 123.444 344.582C111.367 346.999 89.2316 348.975 78.4825 352.402C68.0173 355.739 55.3217 358.823 45.1081 376.093C38.9133 386.565 34.8945 403.519 34.8945 422.219H364.694C364.693 403.519 360.681 386.565 354.474 376.093Z" fill="#F3D4CF"/>
<path d="M236.467 321.654C240.708 340.234 267.347 344.941 281.165 347.707C318.41 355.151 338.577 356.435 353.07 380.923C358.005 389.28 362.35 407.892 363.205 421.983C366.325 422.478 364.108 392.349 354.474 376.093C337.913 348.091 305.023 350.364 276.143 344.584C264.481 342.25 236.783 334.743 236.467 321.654ZM163.564 321.654C163.248 334.743 135.55 342.25 123.888 344.584C95.0083 350.364 62.1184 348.091 45.557 376.093C35.9231 392.35 33.7063 422.478 36.8258 421.983C37.6809 407.892 42.0261 389.28 46.9612 380.923C61.452 356.435 81.6208 355.151 118.866 347.707C132.684 344.941 159.323 340.232 163.564 321.654Z" fill="#FFF4F3"/>
<path d="M117.066 358.493C117.066 358.493 165.755 359.001 173.97 361.698C177.904 362.986 188.202 371.274 188.202 371.274C188.202 371.274 177.057 365.885 173.484 364.885C165.182 362.566 117.066 358.493 117.066 358.493ZM199.667 376.319C203.157 376.25 213.075 369.861 213.075 369.861C213.075 369.861 203.599 373.361 200.593 373.533C198.059 373.679 189.771 371.428 189.771 371.428C189.771 371.428 196.806 376.375 199.667 376.319ZM228.929 364.008C240.404 360.917 279.565 358.517 279.565 358.517C279.565 358.517 239.12 357.64 227.698 361.449C223.87 362.728 214.843 370.221 214.843 370.221C214.843 370.221 225.152 365.023 228.929 364.008Z" fill="#E4B3AB"/>
<path d="M354.474 376.093C337.914 348.092 304.967 350.352 276.143 344.584C264.481 342.249 236.783 334.742 236.467 321.654C236.14 307.942 243.762 253.501 243.762 253.501H155.824C155.824 253.501 163.452 307.94 163.124 321.654C162.811 334.742 135.108 342.249 123.444 344.584C111.367 347.001 89.2316 348.976 78.4825 352.404C68.0173 355.741 55.3217 358.824 45.1081 376.095C38.9133 386.567 34.8945 403.521 34.8945 422.221H364.694C364.693 403.519 360.681 386.565 354.474 376.093Z" stroke="#C5796D" stroke-width="2.55"/>
<path d="M183.813 324.928C191.419 327.727 208.623 327.727 216.227 324.928C222.195 322.734 228.941 318.096 235.758 312.206C237.092 294.318 241.332 263.014 242.42 255.123C240.528 254.938 238.585 254.766 236.593 254.608H163.651C161.432 254.783 159.268 254.975 157.172 255.184C158.265 263.111 162.435 293.885 163.8 311.789C170.782 317.878 177.703 322.681 183.813 324.928Z" fill="url(#paint0_linear_243_980)"/>
<path d="M217.252 425.432C186.883 425.432 151.462 425.315 108.963 425.07L71.385 424.866C48.6934 424.744 44.1833 424.718 41.4123 424.718L33.6382 424.728C33.6926 355.839 67.6637 351.06 103.627 345.996C115.988 344.257 128.768 342.457 140.32 337.95C154.812 358.308 177.591 361.055 197.97 361.055C199.104 361.055 200.25 361.045 201.398 361.026C222.933 360.541 248.236 352.91 256.336 336.952C257.38 337.35 258.353 337.809 259.291 338.254C260.347 338.752 261.438 339.269 262.647 339.706C270.552 342.569 280.381 343.922 290.785 345.357C324.804 350.049 367.142 355.885 366.568 421.974C366.573 422.236 366.575 423.839 366.547 424.341C346.688 424.341 333.215 424.533 317.618 424.755C296.461 425.058 270.128 425.432 217.272 425.432C217.262 425.432 217.257 425.432 217.252 425.432Z" fill="#5B9094"/>
<path d="M366.393 422.219C362.947 412.895 364.761 395.973 354.77 380.923C334.96 351.078 298.122 353.811 264.284 344.136C257.137 358.697 243.476 367.153 227.855 371.999L227.827 371.92C243.155 366.483 256.188 358.207 263.532 343.912C262.681 343.664 261.831 343.416 260.984 343.151L262.609 340.029C303.727 352.676 336.915 343.535 356.172 376.093C362.381 386.565 366.393 403.519 366.393 422.219ZM127.312 346.306C129.465 345.806 131.613 345.274 133.751 344.694L131.487 341.694C91.8036 351.939 61.9789 345.451 43.8552 376.093C37.6502 386.565 33.6365 403.519 33.6365 422.219C37.0824 412.895 35.2685 395.973 45.2594 380.923C63.2301 353.849 95.2138 353.578 126.258 346.54C137.34 360.188 153.529 369.83 171.141 372.606C149.049 366.843 135.31 356.164 127.312 346.306Z" fill="#7EA4A7"/>
<path d="M254.551 340.3C246.058 353.393 223.03 362.323 196.91 362.323C171.1 362.323 149.809 353.473 139.96 338.649L139.885 338.539L141.984 341.694C139.657 342.681 133.795 344.665 133.795 344.665L131.337 341.503L131.488 341.702C131.949 342.304 132.429 342.953 132.935 343.64C140.345 353.677 152.75 370.475 194.638 370.475C198.314 370.475 202.191 370.34 206.164 370.075C233.879 368.09 251.848 359.265 260.979 343.149C260.886 343.11 256.714 341.396 254.551 340.3Z" fill="#38787D"/>
<path d="M256.25 336.74C247.68 353.877 220.499 360.428 201.391 360.858C176.511 361.245 154.534 357.728 140.378 337.743C95.5522 355.328 33.4648 331.645 33.4648 424.9C49.2408 424.9 26.148 424.795 108.962 425.24C305.099 426.367 304.734 424.509 366.699 424.509C366.745 424.286 366.738 422.204 366.734 421.976C367.482 335.949 296.999 351.96 262.703 339.546C260.372 338.702 258.533 337.591 256.25 336.74ZM139.817 338.744C163.292 374.063 242.155 366.813 256.165 337.79C258.069 338.591 260.143 339.388 262.353 340.17C255.716 354.087 241.485 367.372 206.151 369.903C151.727 373.531 139.154 351.469 131.623 341.598C131.854 341.534 137.498 339.613 139.817 338.744ZM33.7028 424.609C37.9528 385.718 41.788 357.937 89.2758 349.694C105.584 346.685 113.941 346.397 131.487 341.651C144.871 359.997 158.243 373.132 207.477 371.061C243.806 367.02 256.044 354.709 262.66 340.291C307.744 354.481 363.445 339.999 366.156 424.237C280.366 423.12 197.482 420.888 33.7028 424.609Z" fill="#1E3C3F" fill-opacity="0.83"/>
<path d="M274.822 246.438C263.143 264.477 235.6 296.883 216.226 303.926C208.621 306.691 191.417 306.691 183.813 303.926C164.439 296.883 136.899 264.477 125.219 246.438C113.739 228.712 99.9703 166.126 99.9516 166.037C97.7416 157.785 96.5584 149.126 96.5448 140.194C96.4547 83.9546 142.707 38.3058 199.857 38.2184C257.013 38.131 303.409 83.6337 303.494 139.872C303.509 148.803 302.357 157.467 300.176 165.726C300.147 165.814 286.341 228.643 274.822 246.438Z" fill="#F3D4CF"/>
<path d="M217.274 39.6514C263.163 50.1349 297.338 90.6192 297.262 138.961C297.247 147.891 296.065 156.553 293.855 164.804C293.835 164.893 281.314 227.482 269.834 245.205C258.152 263.24 231.858 294.417 212.486 301.46C209.977 302.374 203.941 303.294 200.019 303.294C196.097 303.294 190.062 302.374 187.553 301.46C168.179 294.417 141.885 263.24 130.205 245.205C118.725 227.48 106.202 164.893 106.184 164.804C103.974 156.553 102.791 147.892 102.777 138.961C102.7 90.6209 136.872 50.1349 182.765 39.6514C133.766 47.7476 96.4632 89.6868 96.5431 140.193C96.5567 149.122 97.7399 157.783 99.9499 166.035C99.9703 166.124 113.737 228.711 125.217 246.436C136.898 264.473 164.439 296.88 183.811 303.924C187.617 305.309 193.822 305.999 200.024 305.994C206.222 305.996 212.42 305.309 216.225 303.924C235.598 296.881 263.138 264.475 274.82 246.436C286.3 228.71 300.069 166.124 300.086 166.035C302.296 157.783 303.479 149.124 303.492 140.193C303.576 89.6868 266.273 47.7476 217.274 39.6514Z" fill="#EBC3BD"/>
<path d="M274.822 246.438C263.143 264.477 235.6 296.883 216.226 303.926C208.621 306.691 191.417 306.691 183.813 303.926C164.439 296.883 136.899 264.477 125.219 246.438C113.739 228.712 99.9703 166.126 99.9516 166.037C97.7416 157.785 96.5584 149.126 96.5448 140.194C96.4547 83.9546 142.707 38.3058 199.857 38.2184C257.013 38.131 303.409 83.6337 303.494 139.872C303.509 148.803 302.357 157.467 300.176 165.726C300.147 165.814 286.341 228.643 274.822 246.438Z" stroke="#C5796D" stroke-width="2.55"/>
<path d="M199.134 280.111C195.182 280.111 194.255 276.021 194.255 276.021C194.255 276.021 199.688 277.085 204.012 276.021C204.012 276.021 202.612 280.111 199.134 280.111Z" fill="url(#paint1_linear_243_980)"/>
<path d="M199.687 277.085C196.917 277.085 194.45 276.713 194.295 276.691C194.104 276.661 193.975 276.486 194.004 276.295C194.033 276.104 194.219 275.98 194.401 276.004C194.459 276.011 200.076 276.854 203.806 276.006C203.992 275.972 204.183 276.083 204.224 276.27C204.266 276.457 204.149 276.643 203.962 276.687C202.642 276.986 201.124 277.085 199.687 277.085Z" fill="#C5796D"/>
<path d="M177 258C177 258 193.012 259.912 198.362 259.928C204.18 259.942 223 258 223 258C217.559 262.544 211.571 266.912 198.012 266.999C185.884 267.078 182.778 262.645 177 258Z" fill="white"/>
<path d="M177 258C177 258 193.012 259.912 198.362 259.928C204.18 259.942 223 258 223 258C217.559 262.544 211.571 266.912 198.012 266.999C185.884 267.078 182.778 262.645 177 258Z" stroke="#C92066" stroke-width="1.5"/>
<path d="M179.034 186.792C179.28 187.665 179.427 188.562 179.427 189.481C179.427 191.747 178.627 193.889 177.224 195.808C170.986 195.866 151.266 196.888 148.253 195.344C143.949 193.14 140.109 184.07 139.829 181.839C155.121 173.042 166.405 174.754 179.034 186.792Z" fill="url(#paint2_radial_243_980)"/>
<path d="M173.327 191.998C171.443 198.917 164.306 202.994 157.37 201.093C150.442 199.194 146.35 192.038 148.236 185.116C150.118 178.192 157.271 174.116 164.2 176.018C171.127 177.915 175.215 185.072 173.327 191.998Z" fill="#66724E" stroke="#36441A" stroke-width="0.764999"/>
<path d="M173.013 189.361C172.057 197.043 166.353 201.047 160.112 200.629C154.352 200.242 149.202 195.992 148.724 188.652C150.716 188.08 153.362 189.01 155.684 188.656C155.677 188.74 155.649 188.815 155.646 188.9C155.462 191.719 157.722 194.173 160.694 194.373C163.671 194.572 166.232 192.441 166.416 189.624C166.436 189.257 166.413 188.896 166.358 188.55C168.428 188.862 170.954 188.555 173.013 189.361Z" fill="#788165"/>
<path opacity="0.9" d="M162.662 184.217C159.803 183.398 156.884 185.032 156.145 187.883C155.406 190.718 157.127 193.686 159.985 194.506C162.851 195.328 165.77 193.692 166.512 190.856C167.254 188.004 165.527 185.037 162.662 184.217Z" fill="black"/>
<path d="M162.662 184.217C159.803 183.398 156.884 185.032 156.145 187.883C155.406 190.718 157.127 193.686 159.985 194.506C162.851 195.328 165.77 193.692 166.512 190.856C167.254 188.004 165.527 185.037 162.662 184.217Z" stroke="#36441A" stroke-width="1.1475"/>
<path opacity="0.5" d="M154.627 196.483C154.356 197.43 152.88 197.027 153.15 196.076C153.412 195.158 154.119 194.596 154.567 193.788C155.046 192.926 156.368 193.697 155.888 194.561C155.519 195.227 154.836 195.741 154.627 196.483ZM156.982 194.973C156.575 195.447 156.042 197.203 155.81 197.779C155.441 198.694 156.922 199.088 157.286 198.186C157.411 197.872 157.84 196.314 158.063 196.054C158.701 195.311 157.624 194.223 156.982 194.973ZM160.167 199.497C160.966 198.576 160.886 197.52 160.869 196.374C160.854 195.389 159.324 195.387 159.339 196.374C159.348 197.009 159.538 197.892 159.085 198.415C158.441 199.157 159.52 200.244 160.167 199.497ZM161.729 196.183C161.741 197.133 161.858 198.059 162.139 198.968C162.43 199.907 163.906 199.506 163.616 198.561C163.372 197.776 163.27 197.001 163.261 196.181C163.247 195.198 161.717 195.196 161.729 196.183Z" fill="white"/>
<path opacity="0.8" d="M169.88 186.326C168.373 187.229 166.107 186.417 164.823 184.509C163.541 182.599 163.732 180.318 165.241 179.417C166.746 178.51 169.015 179.324 170.291 181.233C171.573 183.142 171.388 185.422 169.88 186.326Z" fill="white"/>
<path d="M131.712 189.321C131.712 210.447 144.044 227.569 159.252 227.569C174.461 227.569 186.792 210.447 186.792 189.321C186.792 168.193 174.461 151.069 159.252 151.069C144.044 151.069 131.712 168.193 131.712 189.321ZM139.829 181.838C155.121 173.042 166.405 174.754 179.034 186.79C179.28 187.664 179.427 188.56 179.427 189.48C179.427 191.746 178.627 193.888 177.224 195.806C170.986 195.865 151.266 196.887 148.253 195.343C143.949 193.14 140.108 184.07 139.829 181.838Z" fill="#F3D4CF"/>
<path d="M139.988 182.581C140.787 185.609 144.322 193.331 148.251 195.345C151.264 196.888 170.983 195.866 177.222 195.808C178.625 193.891 179.425 191.749 179.425 189.482C179.425 188.562 179.278 187.666 179.032 186.792C166.538 174.882 155.354 173.098 140.308 181.579C143.319 172.822 153.346 166.353 165.308 166.299C179.679 166.238 191.345 175.45 191.381 186.879C191.416 198.307 179.795 207.617 165.43 207.681C151.059 207.742 139.396 198.53 139.361 187.103C139.358 185.548 139.586 184.038 139.988 182.581Z" fill="url(#paint3_radial_243_980)"/>
<path d="M148.253 195.345C143.949 193.14 140.109 184.07 139.829 181.839C155.121 173.043 166.405 174.755 179.034 186.792C179.28 187.666 179.427 188.562 179.427 189.482C179.427 191.748 178.627 193.89 177.224 195.808C170.984 195.865 151.264 196.887 148.253 195.345Z" fill="url(#paint4_radial_243_980)"/>
<path d="M139.879 177.064C145.103 175.014 161.754 170.555 169.838 175.015C158.255 171.409 146.679 175.271 139.879 177.064ZM173.767 178.583C176.293 179.523 177.915 181.583 179.064 183.201C177.386 181.42 175.039 179.538 173.767 178.583Z" fill="#C5796D"/>
<path d="M174.646 178.098C161.885 174.021 151.901 174.07 139.168 179.315C133.18 180.142 130.82 179.614 127.788 178.929C129.503 180.39 130.958 181.811 134.387 182.039C132.569 182.495 131.894 182.5 129.892 182.592C132.926 183.539 134.837 184.18 137.985 184.696C136.665 185.321 134.882 185.519 133.238 185.366C134.653 186.476 136.758 186.377 138.88 187.085C144.797 194.858 146.035 196.559 147.869 196.649C163.259 197.58 172.825 196.27 178.948 195.405C176.654 195.115 151.674 196.6 148.252 194.927C143.948 192.823 140.107 184.169 139.827 182.039C155.511 173.432 166.974 175.34 179.999 187.638C177.019 183.113 173.272 180.179 168.142 177.716L174.646 178.098Z" fill="black"/>
<path d="M220.997 186.792C220.751 187.665 220.604 188.562 220.604 189.481C220.604 191.747 221.404 193.889 222.807 195.808C229.045 195.866 248.765 196.888 251.778 195.344C256.082 193.14 259.922 184.07 260.202 181.839C244.91 173.042 233.626 174.754 220.997 186.792Z" fill="url(#paint5_radial_243_980)"/>
<path d="M251.793 191.998C249.91 198.917 242.772 202.994 235.837 201.093C228.909 199.194 224.816 192.038 226.703 185.116C228.584 178.192 235.737 174.116 242.667 176.018C249.593 177.915 253.681 185.072 251.793 191.998Z" fill="#66724E" stroke="#36441A" stroke-width="0.764999"/>
<path d="M251.479 189.361C250.523 197.043 244.819 201.047 238.578 200.629C232.818 200.242 227.668 195.992 227.191 188.652C229.183 188.08 231.828 189.01 234.151 188.656C234.143 188.74 234.115 188.815 234.112 188.9C233.929 191.719 236.189 194.173 239.16 194.373C242.137 194.572 244.698 192.441 244.882 189.624C244.902 189.257 244.879 188.896 244.824 188.55C246.894 188.862 249.42 188.555 251.479 189.361Z" fill="#788165"/>
<path opacity="0.9" d="M241.129 184.217C238.269 183.398 235.35 185.032 234.611 187.883C233.872 190.718 235.593 193.686 238.451 194.506C241.317 195.328 244.236 193.692 244.978 190.856C245.72 188.004 243.993 185.037 241.129 184.217Z" fill="black"/>
<path d="M241.129 184.217C238.269 183.398 235.35 185.032 234.611 187.883C233.872 190.718 235.593 193.686 238.451 194.506C241.317 195.328 244.236 193.692 244.978 190.856C245.72 188.004 243.993 185.037 241.129 184.217Z" stroke="#36441A" stroke-width="1.1475"/>
<path opacity="0.5" d="M233.093 196.483C232.822 197.43 231.346 197.027 231.617 196.076C231.878 195.158 232.585 194.596 233.034 193.788C233.512 192.926 234.834 193.697 234.354 194.561C233.985 195.227 233.303 195.741 233.093 196.483ZM235.448 194.973C235.041 195.447 234.508 197.203 234.276 197.779C233.907 198.694 235.388 199.088 235.752 198.186C235.878 197.872 236.306 196.314 236.53 196.054C237.168 195.311 236.09 194.223 235.448 194.973ZM238.633 199.497C239.432 198.576 239.352 197.52 239.336 196.374C239.32 195.389 237.79 195.387 237.806 196.374C237.815 197.009 238.004 197.892 237.552 198.415C236.907 199.157 237.986 200.244 238.633 199.497ZM240.195 196.183C240.208 197.133 240.324 198.059 240.605 198.968C240.896 199.907 242.373 199.506 242.082 198.561C241.839 197.776 241.736 197.001 241.727 196.181C241.713 195.198 240.183 195.196 240.195 196.183Z" fill="white"/>
<path opacity="0.8" d="M248.346 186.326C246.839 187.229 244.573 186.417 243.289 184.509C242.005 182.599 242.197 180.318 243.705 179.417C245.211 178.51 247.48 179.324 248.756 181.233C250.041 183.142 249.854 185.422 248.346 186.326Z" fill="white"/>
<path d="M240.779 151.069C225.57 151.069 213.239 168.195 213.239 189.321C213.239 210.447 225.57 227.569 240.779 227.569C255.987 227.569 268.318 210.447 268.318 189.321C268.318 168.193 255.987 151.069 240.779 151.069ZM251.778 195.344C248.765 196.888 229.046 195.866 222.807 195.808C221.404 193.891 220.604 191.749 220.604 189.481C220.604 188.562 220.751 187.665 220.997 186.792C233.626 174.754 244.91 173.043 260.202 181.839C259.923 184.07 256.082 193.14 251.778 195.344Z" fill="#F3D4CF"/>
<path d="M260.043 182.581C259.244 185.609 255.708 193.331 251.779 195.345C248.767 196.888 229.048 195.866 222.809 195.808C221.406 193.891 220.605 191.749 220.605 189.482C220.605 188.562 220.752 187.666 220.999 186.792C233.493 174.882 244.677 173.098 259.723 181.579C256.712 172.822 246.684 166.353 234.723 166.299C220.351 166.238 208.685 175.45 208.65 186.879C208.615 198.307 220.235 207.617 234.6 207.681C248.972 207.742 260.635 198.53 260.67 187.103C260.673 185.548 260.445 184.038 260.043 182.581Z" fill="url(#paint6_radial_243_980)"/>
<path d="M251.778 195.345C256.082 193.14 259.922 184.07 260.202 181.839C244.91 173.043 233.626 174.755 220.997 186.792C220.751 187.666 220.604 188.562 220.604 189.482C220.604 191.748 221.404 193.89 222.807 195.808C229.047 195.865 248.767 196.887 251.778 195.345Z" fill="url(#paint7_radial_243_980)"/>
<path d="M230.192 175.015C238.277 170.555 254.928 175.014 260.151 177.064C253.352 175.271 241.776 171.409 230.192 175.015ZM220.967 183.201C222.116 181.583 223.737 179.523 226.263 178.583C224.992 179.538 222.645 181.42 220.967 183.201Z" fill="#C5796D"/>
<path d="M225.385 178.098C238.145 174.021 248.129 174.07 260.863 179.315C266.851 180.142 269.21 179.614 272.243 178.929C270.528 180.39 269.073 181.811 265.644 182.039C267.462 182.495 268.136 182.5 270.139 182.592C267.105 183.539 265.194 184.18 262.045 184.696C263.366 185.321 265.148 185.519 266.793 185.366C265.378 186.476 263.273 186.377 261.15 187.085C255.234 194.858 253.996 196.559 252.162 196.649C236.771 197.58 227.206 196.27 221.083 195.405C223.376 195.115 248.357 196.6 251.779 194.927C256.083 192.823 259.923 184.169 260.203 182.039C244.519 173.432 233.057 175.34 220.032 187.638C223.012 183.113 226.759 180.179 231.889 177.716L225.385 178.098Z" fill="black"/>
<path d="M268.362 228.433C268.422 266.301 237.771 297.054 199.898 297.106C162.032 297.167 131.284 266.518 131.225 228.644C131.167 190.778 161.816 160.03 199.689 159.971C237.556 159.913 268.306 190.562 268.362 228.433Z" fill="url(#paint8_radial_243_980)"/>
<path d="M259.515 131.519C259.515 164.379 232.875 191.019 200.015 191.019C167.156 191.019 140.515 164.379 140.515 131.519C140.515 98.6602 167.156 72.0195 200.015 72.0195C232.875 72.0195 259.515 98.6602 259.515 131.519Z" fill="url(#paint9_radial_243_980)"/>
<path d="M125.739 175.145C136.087 149.65 182.062 172.504 182.554 162.54C182.642 160.544 181.369 159.627 179.494 159.239C157.451 154.836 129.033 153.008 125.739 175.145Z" fill="#6B4E40"/>
<path d="M274.291 175.145C263.944 149.651 217.969 172.504 217.477 162.54C217.389 160.544 218.662 159.627 220.537 159.239C242.58 154.836 270.998 153.008 274.291 175.145Z" fill="#6B4E40"/>
<path d="M198.39 191.762C198.39 191.762 196.984 224.174 197.178 231.294C197.232 233.314 201.122 238.611 200.857 242.471C200.857 242.471 193.271 241.919 190.803 241.047C188.221 240.132 184.226 238.347 185.805 233.361C188.054 226.27 198.39 191.762 198.39 191.762Z" fill="#E4B3AB"/>
<path d="M197.681 238.665C197.681 238.665 194.535 237.548 192.547 237.605C190.738 237.661 190.477 236.455 190.66 235.77C190.844 235.085 191.464 234.658 193.212 235.124C194.961 235.593 197.681 238.665 197.681 238.665ZM202.365 238.669C202.365 238.669 205.505 237.633 207.499 237.611C209.307 237.589 209.571 236.46 209.386 235.777C209.202 235.09 208.582 234.66 206.834 235.126C205.085 235.599 202.365 238.669 202.365 238.669Z" fill="#C5796D"/>
<path opacity="0.1" d="M117.389 400.767C90.6595 358.089 81.1429 375.42 87.3462 328.59C78.4909 312.591 71.4087 296.681 66.6215 279.589C57.1049 243.072 66.8459 219.639 75.3629 192.978C67.2267 81.9033 130.895 21.0195 201.222 21.0195C256.098 21.0195 315.394 60.9185 315.923 148.895C315.049 164.975 312.639 191.978 310.818 203.576C341.025 297.125 315.07 289.679 291.999 333.382C285.741 345.228 278.378 362.736 276.837 380.257C245.115 323.738 248.005 315.104 258.687 289.494C271.444 258.919 266.417 282.575 241.636 285.376C264.693 267.543 280.255 267.591 280.741 156.477C280.743 156.411 280.706 156.35 280.65 156.322C259.651 146.325 239.787 127.412 227.514 105.73C227.484 105.678 227.435 105.645 227.375 105.645H227.37C227.307 105.647 227.251 105.685 227.225 105.742C213.056 135.98 188.761 152.278 148.454 158.585C140.585 162.694 131.9 166.517 121.078 170.63C121.015 170.653 120.97 170.716 120.97 170.786C120.243 214.405 130.263 245.384 155.526 281.614C143.482 276.082 133.858 260.005 133.858 260.005C133.255 260.005 138.081 268.446 138.384 268.983C172.059 328.983 117.781 348.242 117.389 400.767Z" fill="#6B4E40"/>
<path d="M115.187 397.207C87.6863 354.528 77.8943 371.86 84.2778 325.03C75.1658 309.031 67.8779 293.121 62.9547 276.029C53.1627 239.512 63.1842 216.079 71.9477 189.418C63.5752 78.3449 129.083 17.4595 201.445 17.4595C257.902 17.4595 318.913 57.3585 319.457 145.335C318.561 161.415 316.085 188.418 314.206 200.016C345.287 293.565 318.58 286.119 294.843 329.822C288.402 341.668 280.832 359.176 279.246 376.696C246.602 320.178 249.579 311.544 260.573 285.934C273.693 255.359 265.593 278.936 243.027 283.854C266.749 266.021 282.761 264.031 283.263 152.917C283.264 152.851 283.225 152.79 283.164 152.762C261.559 142.765 241.125 123.852 228.499 102.17C228.468 102.118 228.412 102.085 228.353 102.085H228.346C228.283 102.087 228.227 102.125 228.2 102.182C213.619 132.42 188.622 148.718 147.152 155.025C139.053 159.134 130.118 162.957 118.985 167.07C118.919 167.093 118.876 167.156 118.874 167.226C118.125 210.843 128.435 243.524 154.428 279.754C141.981 270.542 132.136 256.445 132.136 256.445C131.514 256.445 136.481 264.886 136.791 265.423C171.437 325.424 115.59 344.684 115.187 397.207Z" fill="#6B4E40"/>
<path d="M76.4933 223.071C75.2166 209.932 54.9441 125.405 105.021 63.5059C81.2346 109.673 74.3105 171.983 76.4933 223.071ZM314.801 196.191C322.305 144.456 324.336 88.9838 281.748 48.7329C302.785 89.8576 317.47 119.946 314.801 196.191ZM273.353 75.1764C269.304 94.0277 276.262 118.785 278.542 135.888C266.659 126.309 259.576 112.821 251.406 94.0753C253.2 104.663 257.331 123.703 280.259 147.222C243.202 114.127 235.251 97.4277 241.305 58.0489C240.968 59.5398 240.644 60.9474 240.331 62.2819C241.142 57.9605 241.883 53.2923 242.515 48.2212C237.074 78.8212 196.416 133.304 162.512 144.955C157.395 150.077 152.759 150.316 147.223 155.013C193.516 147.955 222.697 121.513 228.956 102.541C241.597 123.346 264.539 142.569 285.34 152.404C288.481 124.878 278.54 107.963 273.353 75.1764ZM202.626 76.3885C187.326 101.888 178.225 118.038 154.425 133.338C162.151 127.156 167.493 116.905 170.627 107.963C161.26 121.826 146.576 130.469 133.715 141.721C146.492 127.666 163.712 107.963 174.576 89.1385C163.625 103.728 145.994 115.211 130.315 128.238C142.65 117.989 152.415 105.005 159.215 91.4046C154.498 97.6946 145.85 102.385 135.415 112.821C150.668 92.479 152.211 83.0984 156.528 74.7327C145.96 92.5385 136.714 98.7129 126.278 107.534C119.102 137.628 118.694 150.694 117.343 167.226C117.276 168.024 146.435 155.389 147.152 155.025C147.176 155.022 147.2 155.017 147.223 155.013C174.41 131.944 185.569 107.881 202.626 76.3885ZM132.015 269.221C136.755 288.178 134.099 305.083 127.826 324.871C126.997 306.577 113.419 287.8 103.318 271.385C105.636 306.619 109.38 323.004 103.459 349.804C100.287 301.19 90.1426 284.747 75.2676 248.796C69.2717 271.564 70.7473 301.268 84.2759 325.03C77.8924 371.86 87.6844 354.529 115.185 397.207C115.59 344.684 171.435 325.423 136.787 265.423C136.476 264.886 131.51 256.446 132.133 256.446C132.133 256.446 141.979 270.542 154.425 279.754C116.629 238.596 106.718 186.746 105.635 130.646C97.1568 198.217 121.815 235.221 132.015 269.221ZM317.529 208.796C319 237.574 326.776 273.684 301.792 297.106C311.992 280.106 307.115 257.321 302.015 240.321C302.654 285.816 283.635 313.139 278.54 343.004C277.765 329.258 274.623 312.644 281.044 290.279C274.817 301.162 267.793 313.821 265.084 328.908C256.175 312.202 261.061 299.556 264.178 283.29C277.401 269.367 286.545 242.764 288.478 225.67C286.889 239.723 277.79 260.866 267.266 269.695C267.264 269.711 266.354 272.771 265.355 276.125C265.43 275.559 265.501 274.989 265.567 274.411C250.39 310.128 242.881 313.734 279.245 376.693C280.682 360.786 287.276 343.734 294.843 329.819C317.716 287.707 343.497 292.132 317.529 208.796Z" fill="#5C3D2E"/>
<path d="M294.092 171.942C301.349 142.338 290.19 96.7764 284.463 87.8871C293.393 101.739 305.371 139.111 294.092 171.942ZM301.065 185.409C301.843 181.392 325.026 136.56 285.775 73.3555C321.28 137.984 301.854 181.336 301.065 185.409ZM87.9615 130.47C89.6615 129.71 100.475 50.1301 170.291 35.1208C97.0735 48.0221 89.6615 129.714 87.9615 130.47ZM97.6005 205.925C97.5597 204.22 83.7421 125.374 122.575 74.8481C77.6085 128.065 97.5597 204.225 97.6005 205.925ZM103.137 259.286C100.71 256.061 80.8572 202.647 90.0967 141.758C73.0015 205.614 101.859 257.586 103.137 259.286ZM290.787 88.6929C289.087 88.1914 268.59 29.1641 226.447 34.9848C263.31 32.8955 289.087 88.1863 290.787 88.6929ZM255.712 119.276C255.712 119.276 239.7 94.1652 245.506 52.8365C240.147 78.0645 240.71 95.5031 255.712 119.276ZM260.236 99.7344C264.602 111.906 274.013 125.044 275.58 126.083C273.879 124.956 259.158 103.403 255.717 67.8968C256.023 78.5541 256.598 89.5888 260.236 99.7344ZM179.857 133.926C193.445 120.718 223.778 107.741 241.011 44.8907C222.52 102.949 194.23 119.954 179.857 133.926ZM179.899 82.2363C191.784 70.8854 196.039 59.2489 195.891 48.3281C194.674 59.288 188.739 73.7941 179.899 82.2363ZM162.863 87.8956C163.504 87.8735 165.13 85.9627 165.589 85.5615C179.149 73.7312 185.351 64.1738 186.648 47.7603C184.657 66.4756 164.567 87.8378 162.863 87.8956ZM160.58 84.5313C160.58 84.5313 174.571 68.1059 179.597 44.9077C174.276 63.4156 160.58 84.5313 160.58 84.5313ZM125.9 297.67C126.888 295.97 129.173 263.205 112.946 249.662C123.155 260.022 126.886 295.969 125.9 297.67ZM125.929 297.653C125.147 284.453 113.094 273.993 110.646 257.454C111.558 278.547 124.578 286.061 125.929 297.653ZM99.8768 309.004C98.2465 305.195 106.206 287.707 82.3447 250.723C101.781 285.708 99.0914 307.168 99.8768 309.004ZM99.9108 306.759C97.8946 299.314 101.451 283.387 92.5583 257.477C97.2061 274.666 97.303 297.116 99.9108 306.759ZM285.056 259.512C278.072 273.238 263.767 282.746 267.481 316.93C267.14 313.78 267.753 310.23 268 307.087C271.327 264.667 282.742 297.347 295.278 218.275C292.245 230.41 289.937 249.923 285.056 259.512ZM281.155 321.46C281.785 318.985 281.741 316.195 282.18 313.664C285.889 292.22 294.064 280.716 294.778 246.099C293.143 274.117 280.801 297.279 281.155 321.46ZM310.697 276.067C311.494 270.749 322.3 262.565 314.09 220.06C318.758 263.681 311.481 270.838 310.697 276.067ZM310.699 276.12C311.443 274.42 315.984 245.642 304.492 224.072C312.514 241.536 311.445 274.42 310.699 276.12Z" fill="#7A6155"/>
<path d="M62.1471 294.301C62.5687 289.925 63.2504 285.5 64.2517 281.012C68.5017 294.337 73.6068 306.638 84.1077 325.008C77.6936 372.062 87.7049 354.625 115.354 397.785C115.354 359.931 144.352 339.036 147.705 309.606C150.737 282.807 139.614 271.596 132.133 256.617C138.365 265.301 146.53 274.324 155.185 280.521C130.523 246.415 118.235 214.287 119.043 167.233C128.614 163.697 138.083 159.821 147.178 155.197C183.675 149.645 212.243 135.664 228.353 102.259C240.786 123.614 260.94 142.668 283.093 152.919C282.586 264.908 266.484 265.821 242.327 284.174C252.205 282.289 264.003 274.435 266.655 270.693C251.24 311.068 240.827 310.595 279.37 377.249C280.723 361.004 287.166 344.298 294.993 329.904C318.651 286.34 345.552 292.021 314.458 198.511C317.082 182.295 319.263 166.745 319.558 151.2C319.855 156.717 320.027 162.041 320.181 167.223C320.545 167.223 320.909 167.223 321.271 167.223C320.834 160.276 320.379 153.033 319.626 145.335C318.509 -35.5583 55.3352 -28.369 71.7827 189.365C62.8968 216.417 52.9756 239.488 62.7897 275.98C61.2155 281.083 60.0255 286.025 59.1568 290.853C60.0612 292.096 61.0115 293.291 62.1471 294.301ZM72.4457 196.605C72.6072 198.305 78.7697 243.617 74.6897 210.426C44.5266 -34.9616 357.326 -51.9616 312.452 209.544C309.402 227.316 311.146 218.977 314.085 200.84C343.426 299.865 307.71 278.297 282.941 349.369C280.612 356.065 278.963 364.669 278.283 371.69C241.524 306.939 259.231 301.084 268.695 268.5C279.914 256.104 286.741 241.519 288.602 223.416C284.198 253.997 264.15 274.501 247.495 281.318C256.192 275.587 265.239 269.461 270.616 260.255C274.074 256.624 290.612 215.761 284.42 137.804C281.576 103.565 270.077 93.4223 272.638 78.8822C270.264 90.3011 276.767 98.0191 280.645 121.518C282.438 132.497 283.077 148.458 283.077 151.387C264.508 141.247 240.73 119.274 229.085 100.744C236.669 85.1977 240.615 61.5167 243.705 46.5652C234.498 84.1148 228.043 135.841 152.313 152.475C164.608 145.755 191.391 131.662 219.038 75.3632C219.072 75.3462 219.088 75.3292 219.088 75.2952C233.896 46.2337 220.111 71.8374 218.935 73.9352C218.913 73.891 218.918 73.7601 218.918 73.9522C184.652 135.31 157.06 151.018 119.043 166.772C119.06 165.616 119.077 164.46 119.128 163.304C165.845 148.104 194.978 92.4584 185.547 106.218C170.456 128.352 144.483 153.844 119.145 162.896C119.174 161.196 119.456 155.552 119.927 150.758C152.592 127.563 159.788 115.334 172.44 93.2982C173.385 91.6339 174.203 90.2161 174.911 89.004C167.29 100.605 147.196 128.444 120.012 149.736C120.76 141.882 121.882 134.062 123.225 126.293C124.79 124.223 138.242 113.455 149.269 91.0355C154.528 80.4122 156.528 74.7325 156.528 74.7325C155.047 77.4151 146.268 97.5193 123.701 123.658C127.424 103.024 132.52 84.4293 138.27 64.1075C128.484 94.529 118.963 127.47 116.153 160.667C115.323 162.367 113.746 225.245 145.452 269.415C96.5432 216.8 104.54 152.137 104.848 130.492C104.695 130.492 103.573 148.087 103.488 149.277C96.9138 236.683 147.003 257.827 144.288 303.314C142.295 336.546 114.798 355.032 114.555 394.927C93.0718 357.602 80.8794 368.492 85.9097 328.117C86.0406 326.417 87.8375 314.087 86.0457 302.056C83.1625 282.921 79.04 277.41 79.6435 273.394C79.1862 275.822 80.2402 278.301 82.0524 284.784C85.2977 296.12 85.7295 311.481 84.3134 323.425C56.2243 268.094 60.1547 238.692 72.4457 196.605Z" fill="#3D2012"/>
<path opacity="0.2" d="M268.313 207.791C261.563 212.458 252.18 215.058 241.698 214.025C225.468 212.442 215.842 201.896 212.241 192.578C209.124 184.745 210.4 179.254 216.504 174.231C221.139 170.42 229.86 167.497 239.373 166.544C257.235 172.649 273.045 190.769 268.313 207.791ZM146.736 166.657C135.981 168.014 126.242 172.584 122.318 181.951C115.502 199.248 133.962 216.399 158.316 214.025C165.099 213.363 170.719 211.118 175.241 208.066C180.199 191.076 164.55 172.923 146.736 166.657Z" fill="white"/>
<path opacity="0.4" d="M268.313 207.791C273.045 190.769 257.235 172.665 239.389 166.544C254.731 165.01 272.125 168.611 277.713 181.951C281.589 191.803 277.261 201.606 268.313 207.791ZM183.51 174.216C176.646 168.563 160.803 164.865 146.736 166.657C164.55 172.924 180.199 191.076 175.241 208.066C181.523 203.818 185.674 198.004 187.773 192.562C190.907 184.745 189.631 179.254 183.51 174.216Z" fill="white"/>
<path d="M286.757 185.746C286.434 184.212 285.642 182.5 285.077 181.951C283.947 180.821 280.927 180.11 278.827 180.029C267.813 156.596 217.699 161.925 209.883 179.674C204.489 176.492 195.558 176.476 190.131 179.674C182.299 161.909 132.185 156.596 121.187 180.029C119.088 180.11 116.068 180.821 114.937 181.951C114.388 182.5 113.581 184.212 113.258 185.746C113.048 186.764 112.289 187.62 112.547 188.217C113.258 189.832 114.695 188.831 115.309 188.427C115.777 188.266 117.812 188.524 119.12 189.542C119.249 204.836 136.4 217.949 158.494 215.785C181.055 213.589 192.57 194.177 191.036 182.775C194.121 180.482 205.878 180.465 208.979 182.775C207.444 194.161 218.959 213.573 241.521 215.785C263.598 217.949 280.765 204.836 280.894 189.542C282.203 188.524 284.221 188.266 284.706 188.427C285.319 188.831 286.773 189.832 287.484 188.217C287.726 187.62 286.967 186.764 286.757 185.746ZM119.314 186.683C118.183 186.15 116.956 185.827 115.906 185.827C116.132 184.987 116.504 184.035 116.762 183.776C117.182 183.356 118.571 182.743 120.105 182.791C119.718 184.051 119.459 185.359 119.314 186.683ZM187.063 192.287C183.575 201.331 174.175 211.683 158.268 213.25C134.285 215.592 116.536 198.844 123.061 182.242C123.222 181.854 123.303 181.677 123.416 181.37C132.363 161.618 171.155 165.074 183.025 174.829C188.387 179.238 190.309 184.115 187.063 192.287ZM241.779 213.25C225.871 211.699 216.456 201.331 212.968 192.287C209.705 184.115 211.643 179.238 217.005 174.829C228.875 165.074 267.651 161.634 276.615 181.354C276.728 181.677 276.825 181.838 276.97 182.226C283.511 198.828 265.746 215.592 241.779 213.25ZM280.717 186.683C280.555 185.359 280.313 184.051 279.925 182.791C281.46 182.743 282.849 183.34 283.268 183.776C283.527 184.051 283.898 184.987 284.124 185.827C283.075 185.843 281.847 186.15 280.717 186.683Z" fill="#C5796D"/>
</g>
<defs>
<linearGradient id="paint0_linear_243_980" x1="199.981" y1="327.48" x2="199.981" y2="268.118" gradientUnits="userSpaceOnUse">
<stop stop-color="#E4B3AB" stop-opacity="0.8"/>
<stop offset="0.7" stop-color="#C5796D"/>
</linearGradient>
<linearGradient id="paint1_linear_243_980" x1="198.958" y1="280.181" x2="198.958" y2="275.999" gradientUnits="userSpaceOnUse">
<stop offset="0.1" stop-color="#EBC3BD"/>
<stop offset="1" stop-color="#E4B3AB"/>
</linearGradient>
<radialGradient id="paint2_radial_243_980" cx="0" cy="0" r="1" gradientUnits="userSpaceOnUse" gradientTransform="translate(159.106 186.953) rotate(180) scale(20.8079)">
<stop stop-color="white"/>
<stop offset="0.544" stop-color="#FDFEFE"/>
<stop offset="0.74" stop-color="#F6F8F9"/>
<stop offset="0.879" stop-color="#EAEFF2"/>
<stop offset="0.992" stop-color="#D9E3E8"/>
<stop offset="1" stop-color="#D8E2E7"/>
</radialGradient>
<radialGradient id="paint3_radial_243_980" cx="0" cy="0" r="1" gradientTransform="matrix(25.7952 0.536648 0.428286 -20.6351 165.499 186.178)" gradientUnits="userSpaceOnUse">
<stop stop-color="#E4B3AB"/>
<stop offset="0.7" stop-color="#E4B3AB" stop-opacity="0.3"/>
<stop offset="1" stop-color="#F3D4CF" stop-opacity="0"/>
</radialGradient>
<radialGradient id="paint4_radial_243_980" cx="0" cy="0" r="1" gradientTransform="matrix(35.3467 -1.84256 1.8527 35.1303 157.811 214.498)" gradientUnits="userSpaceOnUse">
<stop offset="0.95" stop-opacity="0"/>
<stop offset="1" stop-opacity="0.3"/>
</radialGradient>
<radialGradient id="paint5_radial_243_980" cx="0" cy="0" r="1" gradientUnits="userSpaceOnUse" gradientTransform="translate(240.923 186.953) scale(20.8095 20.8095)">
<stop stop-color="white"/>
<stop offset="0.544" stop-color="#FDFEFE"/>
<stop offset="0.74" stop-color="#F6F8F9"/>
<stop offset="0.879" stop-color="#EAEFF2"/>
<stop offset="0.992" stop-color="#D9E3E8"/>
<stop offset="1" stop-color="#D8E2E7"/>
</radialGradient>
<radialGradient id="paint6_radial_243_980" cx="0" cy="0" r="1" gradientTransform="matrix(-25.7952 0.536648 -0.428286 -20.6351 234.531 186.178)" gradientUnits="userSpaceOnUse">
<stop stop-color="#E4B3AB"/>
<stop offset="0.7" stop-color="#E4B3AB" stop-opacity="0.3"/>
<stop offset="1" stop-color="#F3D4CF" stop-opacity="0"/>
</radialGradient>
<radialGradient id="paint7_radial_243_980" cx="0" cy="0" r="1" gradientTransform="matrix(-35.3467 -1.84256 -1.8527 35.1303 242.22 214.498)" gradientUnits="userSpaceOnUse">
<stop offset="0.95" stop-opacity="0"/>
<stop offset="1" stop-opacity="0.3"/>
</radialGradient>
<radialGradient id="paint8_radial_243_980" cx="0" cy="0" r="1" gradientUnits="userSpaceOnUse" gradientTransform="translate(200.015 228.421) scale(68 68)">
<stop stop-color="#FFF4F3" stop-opacity="0.5"/>
<stop offset="0.9" stop-color="#F3D4CF" stop-opacity="0"/>
</radialGradient>
<radialGradient id="paint9_radial_243_980" cx="0" cy="0" r="1" gradientUnits="userSpaceOnUse" gradientTransform="translate(200.015 133.221) scale(61.2)">
<stop stop-color="#FFF4F3" stop-opacity="0.5"/>
<stop offset="0.9" stop-color="#F3D4CF" stop-opacity="0"/>
</radialGradient>
<clipPath id="clip0_243_980">
<rect width="400" height="400" fill="white"/>
</clipPath>
</defs>
</svg>
